<svg xmlns="http://www.w3.org/2000/svg" version="1.1" xmlns:xlink="http://www.w3.org/1999/xlink" xmlns:svgjs="http://svgjs.dev/svgjs" width="1500" height="1500" viewBox="0 0 1500 1500"><rect width="1500" height="1500" fill="#c12131"></rect><g transform="matrix(0.6666666666666666,0,0,0.6666666666666666,242.5162248390884,570.6321032199776)"><svg viewBox="0 0 400 138" data-background-color="#c12131" preserveAspectRatio="xMidYMid meet" height="517" width="1500" xmlns="http://www.w3.org/2000/svg" xmlns:xlink="http://www.w3.org/1999/xlink"><g id="tight-bounds" transform="matrix(1,0,0,1,4.153066664631751,4.005606670577976)"><svg viewBox="0 0 395.52 133.81288114878348" height="133.81288114878348" width="395.52"><g><svg viewBox="0 0 667.5321642836032 225.8404180882686" height="133.81288114878348" width="395.52"><g><rect width="7.404568255153104" height="177.32001576461712" x="245.2239094966356" y="24.260201161825734" fill="#ffffff" opacity="1" stroke-width="0" stroke="transparent" fill-opacity="1" class="rect-yte-0" data-fill-palette-color="primary" rx="1%" id="yte-0" data-palette-color="#ffffff"></rect></g><g transform="matrix(1,0,0,1,272.0121642836031,24.701295728404375)"><svg viewBox="0 0 395.52 176.43782663145984" height="176.43782663145984" width="395.52"><g id="textblocktransform"><svg viewBox="0 0 395.52 176.43782663145984" height="176.43782663145984" width="395.52" id="textblock"><g><svg viewBox="0 0 395.52 176.43782663145984" height="176.43782663145984" width="395.52"><g transform="matrix(1,0,0,1,0,0)"><svg width="395.52" viewBox="1.9800000000000004 -39.6 194.16 83.62" height="176.43782663145984" data-palette-color="#ffffff"><svg></svg><svg></svg><g class="wordmark-text-0" data-fill-palette-color="primary" id="text-0"><path transform="translate(17.7,0)" d="M23.24 0.71v0c-3.987 0-7.607-0.74-10.86-2.22v0c-3.287-1.467-5.917-3.747-7.89-6.84-1.967-3.093-2.95-6.99-2.95-11.69v0c0-3.747 0.773-7.1 2.32-10.06v0c1.547-2.967 3.797-5.29 6.75-6.97 2.953-1.687 6.43-2.53 10.43-2.53v0c1.693 0 3.343 0.283 4.95 0.85 1.6 0.573 2.867 1.407 3.8 2.5v0l0.8-2.59h8.45v14.33h-7.55c-0.5-2.053-1.467-3.607-2.9-4.66-1.433-1.06-2.93-1.59-4.49-1.59v0c-2.607 0-4.667 0.95-6.18 2.85-1.513 1.907-2.27 4.53-2.27 7.87v0c0 3.367 0.75 6.007 2.25 7.92 1.493 1.913 3.607 2.87 6.34 2.87v0c0.653 0 1.353-0.067 2.1-0.2v0c0.553-0.093 1.077-0.227 1.57-0.4 0.487-0.173 0.81-0.277 0.97-0.31v0-3.44h-4.69v-7.25h15.65v17.46c-2.507 1.333-5.19 2.35-8.05 3.05-2.867 0.7-5.717 1.05-8.55 1.05zM55.32-8.59h4.64v8.59h-17.14v-8.59h3.86l6.69-21.66h-5.1v-8.59h24.19l8.67 30.25h3.83v8.59h-21.85v-8.59h3.17l-1.05-4.15h-8.81zM57.67-18.65h6.39l-2.83-11.89zM99.02-8.59h3.91v8.59h-16.41v-8.59h4.72v-21.66h-4.72v-8.59h20.95l7.54 18.7 7.48-18.7h19.53v8.59h-4.69v21.66h4.69v8.59h-20.34v-8.59h3.15v-14.51l-8.59 23.1h-7.06l-10.16-23.66zM171.75-16.55h6.25v16.55h-32.79v-8.59h4.72v-21.66h-4.72v-8.59h32.79v15.45h-6.25l-2.34-6.86h-6.98v6.35h6.25v6.4h-6.25v8.91h6.98z" fill="#ffffff" fill-rule="nonzero" stroke="none" stroke-width="1" stroke-linecap="butt" stroke-linejoin="miter" stroke-miterlimit="10" stroke-dasharray="" stroke-dashoffset="0" font-family="none" font-weight="none" font-size="none" text-anchor="none" style="mix-blend-mode: normal" data-fill-palette-color="primary" opacity="1"></path><path transform="translate(0,43.31)" d="M13.62-8.74h3.91v8.74h-15.55v-8.74h3.95v-21.56h-3.85v-8.59h17.94l12.16 23.09v-14.45h-3.91v-8.59h15.55v8.59h-3.85v30.25h-14.8l-11.55-21.46zM64.75-8.59h3.88v8.59h-20.29v-8.59h3.91v-21.66h-3.91v-8.59h20.29v8.59h-3.88zM93.53 0.71v0c-3.987 0-7.607-0.74-10.86-2.22v0c-3.293-1.467-5.923-3.747-7.89-6.84-1.967-3.093-2.95-6.99-2.95-11.69v0c0-3.747 0.773-7.1 2.32-10.06v0c1.54-2.967 3.79-5.29 6.75-6.97 2.953-1.687 6.43-2.53 10.43-2.53v0c1.693 0 3.343 0.283 4.95 0.85 1.6 0.573 2.863 1.407 3.79 2.5v0l0.81-2.59h8.45v14.33h-7.55c-0.5-2.053-1.467-3.607-2.9-4.66-1.433-1.06-2.933-1.59-4.5-1.59v0c-2.6 0-4.657 0.95-6.17 2.85-1.513 1.907-2.27 4.53-2.27 7.87v0c0 3.367 0.747 6.007 2.24 7.92 1.5 1.913 3.617 2.87 6.35 2.87v0c0.653 0 1.353-0.067 2.1-0.2v0c0.553-0.093 1.073-0.227 1.56-0.4 0.493-0.173 0.82-0.277 0.98-0.31v0-3.44h-4.69v-7.25h15.65v17.46c-2.507 1.333-5.19 2.35-8.05 3.05-2.867 0.7-5.717 1.05-8.55 1.05zM130.52-8.59h3.1v8.59h-19.51v-8.59h3.91v-21.66h-3.91v-8.59l19.51-0.05v8.64h-3.1v6.4h9.35v-6.4h-3.1v-8.64l19.48 0.05v8.59h-3.88v21.66h3.88v8.59h-19.48v-8.59h3.1v-6.91h-9.35zM184.69-8.79h4.01v8.79h-21.76v-8.79h4.01v-21.46h-3.45l-1.04 6.69h-6.87v-15.28h36.55v15.28h-6.83l-1.05-6.69h-3.57z" fill="#ffffff" fill-rule="nonzero" stroke="none" stroke-width="1" stroke-linecap="butt" stroke-linejoin="miter" stroke-miterlimit="10" stroke-dasharray="" stroke-dashoffset="0" font-family="none" font-weight="none" font-size="none" text-anchor="none" style="mix-blend-mode: normal" data-fill-palette-color="primary" opacity="1"></path></g></svg></g></svg></g></svg></g></svg></g><g><svg viewBox="0 0 225.84022296482118 225.8404180882686" height="225.8404180882686" width="225.84022296482118"><g><svg version="1.0" xmlns="http://www.w3.org/2000/svg" xmlns:xlink="http://www.w3.org/1999/xlink" x="0" y="0" viewBox="0 -7.078721041870632e-16 100.00019088849639 100.00027728755202" enable-background="new 0 0 100 100" xml:space="preserve" id="icon-0" width="225.84022296482118" height="225.8404180882686" class="icon-icon-0" data-fill-palette-color="accent"><path d="M41.464 0H5.614A5.614 5.614 0 0 0 0 5.614V41.464C0 44.564 2.514 47.078 5.614 47.078H41.464A5.613 5.613 0 0 0 47.077 41.464V5.614A5.613 5.613 0 0 0 41.464 0M11.204 6.588A4.615 4.615 0 1 1 11.204 15.818 4.615 4.615 0 0 1 11.205 6.587M11.204 40.488A4.615 4.615 0 1 1 11.204 31.258 4.615 4.615 0 0 1 11.203 40.489M23.539 28.154A4.615 4.615 0 1 1 23.539 18.924 4.615 4.615 0 0 1 23.538 28.155M35.874 40.488A4.614 4.614 0 0 1 31.259 35.873 4.614 4.614 0 1 1 40.488 35.873 4.614 4.614 0 0 1 35.874 40.488M35.874 15.819A4.614 4.614 0 0 1 31.259 11.204 4.614 4.614 0 1 1 40.488 11.204 4.614 4.614 0 0 1 35.874 15.819" fill="#1e2019" data-fill-palette-color="accent"></path><path d="M98.356 65.067L73.006 39.718A5.61 5.61 0 0 0 65.067 39.718L39.717 65.068A5.614 5.614 0 0 0 39.717 73.007L65.067 98.357A5.616 5.616 0 0 0 73.006 98.357L98.356 73.007A5.615 5.615 0 0 0 98.356 65.067M72.301 48.329A4.616 4.616 0 1 1 65.772 54.856 4.616 4.616 0 0 1 72.301 48.329M48.33 72.3A4.614 4.614 0 1 1 54.856 65.773 4.616 4.616 0 0 1 48.33 72.3M65.773 72.299A4.616 4.616 0 1 1 72.3 65.776 4.616 4.616 0 0 1 65.773 72.299M65.773 89.744A4.613 4.613 0 0 1 65.773 83.218 4.615 4.615 0 1 1 65.773 89.744M83.218 72.299A4.615 4.615 0 1 1 89.744 65.774 4.615 4.615 0 0 1 83.218 72.299" fill="#1e2019" data-fill-palette-color="accent"></path></svg></g></svg></g></svg></g><defs></defs></svg><rect width="395.52" height="133.81288114878348" fill="none" stroke="none" visibility="hidden"></rect></g></svg></g></svg>