<svg xmlns="http://www.w3.org/2000/svg" version="1.1" xmlns:xlink="http://www.w3.org/1999/xlink" xmlns:svgjs="http://svgjs.dev/svgjs" width="1500" height="1500" viewBox="0 0 1500 1500"><rect width="1500" height="1500" fill="#ffffff"></rect><g transform="matrix(0.6666666666666666,0,0,0.6666666666666666,250,246.5482917924935)"><svg viewBox="0 0 280 281" data-background-color="#ffffff" preserveAspectRatio="xMidYMid meet" height="1505" width="1500" xmlns="http://www.w3.org/2000/svg" xmlns:xlink="http://www.w3.org/1999/xlink"><g id="tight-bounds" transform="matrix(1,0,0,1,0,0.499930238846531)"><svg viewBox="0 0 280 280" height="280" width="280"><g><svg viewBox="0 0 280 280" height="280" width="280"><g><svg viewBox="0 0 280 280" height="280" width="280"><g id="textblocktransform"><svg viewBox="0 0 280 280" height="280" width="280" id="textblock"><g><svg viewBox="0 0 280 280" height="280" width="280"><g transform="matrix(1,0,0,1,90.50252531694167,110.5213489887299)"><svg viewBox="0 0 98.99494936611666 58.957302022540205" height="58.957302022540205" width="98.99494936611666"><g id="icon-0"><svg xmlns="http://www.w3.org/2000/svg" xmlns:xlink="http://www.w3.org/1999/xlink" version="1.1" x="0" y="0" viewBox="4.916 23.148664348452584 90.168 53.70033565154742" enable-background="new 0 0 100 100" xml:space="preserve" height="58.957302022540205" width="98.99494936611666" class="icon-jxe-0" data-fill-palette-color="accent" id="jxe-0"><path d="M77.332 41.346C76.413 41.346 75.518 41.438 74.637 41.573L71.386 26.241C71.377 26.199 71.351 26.168 71.337 26.128A1 1 0 0 0 71.257 25.944 1 1 0 0 0 71.139 25.791 1 1 0 0 0 71.009 25.665 1 1 0 0 0 70.823 25.558C70.788 25.542 70.762 25.514 70.724 25.502L63.818 23.205A0.998 0.998 0 1 0 63.189 25.099L69.552 27.215 70.667 32.476H36.725L36.018 28.89A1 1 0 0 0 35.902 28.609H42.547A0.998 0.998 0 0 0 42.547 26.613H29.179A0.998 0.998 0 0 0 29.179 28.609H34.175A0.98 0.98 0 0 0 34.059 29.276L34.857 33.323 29.873 42.898A17.6 17.6 0 0 0 22.667 41.347C12.879 41.347 4.916 49.31 4.916 59.098S12.879 76.849 22.667 76.849C30.033 76.849 36.325 72.322 39 65.915L39.417 66.057C39.423 66.059 39.429 66.058 39.436 66.06A4.9 4.9 0 0 0 41.449 66.503 4.91 4.91 0 0 0 46.353 61.6C46.353 60.864 46.179 60.173 45.887 59.546L72.253 39.952 72.684 41.984C65.147 44.035 59.582 50.919 59.582 59.096 59.582 68.885 67.545 76.847 77.333 76.847S95.084 68.884 95.084 59.096C95.083 49.308 87.12 41.346 77.332 41.346M35.476 36.459L38.294 50.754A17.84 17.84 0 0 0 31.647 43.814zM42.122 59.855L41.902 58.737C42.317 58.803 42.704 58.949 43.042 59.171zM36.789 63.052L26.768 59.638 37.329 58.959A4.87 4.87 0 0 0 36.544 61.6C36.545 62.109 36.645 62.59 36.789 63.052M24.371 57.792L30.725 45.586C34.721 47.982 37.57 52.091 38.245 56.899zM22.668 74.851C13.981 74.851 6.913 67.783 6.913 59.096S13.98 43.341 22.668 43.341C24.904 43.341 27.027 43.819 28.954 44.663L21.952 58.115A0.99 0.99 0 0 0 21.764 60.04L37.114 65.27C34.708 70.891 29.158 74.851 22.668 74.851M44.356 61.6A2.91 2.91 0 0 1 41.449 64.507 2.91 2.91 0 0 1 38.541 61.6C38.541 60.549 39.106 59.636 39.944 59.125L40.47 61.793C40.472 61.801 40.477 61.807 40.478 61.814 40.487 61.855 40.509 61.891 40.523 61.93 40.552 62.011 40.583 62.089 40.63 62.157 40.638 62.169 40.639 62.183 40.648 62.195 40.663 62.215 40.687 62.223 40.704 62.241A1 1 0 0 0 40.954 62.449C40.988 62.469 41.018 62.49 41.053 62.505A1 1 0 0 0 41.449 62.597H41.454C41.516 62.597 41.579 62.591 41.643 62.579 41.66 62.576 41.672 62.564 41.689 62.56A1 1 0 0 0 41.938 62.457C41.966 62.441 41.998 62.431 42.024 62.413 42.031 62.408 42.039 62.407 42.046 62.402L44.226 60.782C44.302 61.042 44.356 61.313 44.356 61.6M44.689 57.948A4.86 4.86 0 0 0 41.5 56.701L37.118 34.471H71.09L71.797 37.803zM77.332 74.851C68.645 74.851 61.577 67.783 61.577 59.096 61.577 51.878 66.463 45.793 73.097 43.936L76.355 59.302A1 1 0 0 0 78.309 58.89L75.051 43.527A16 16 0 0 1 77.332 43.343C86.019 43.343 93.087 50.41 93.087 59.098S86.019 74.851 77.332 74.851" fill="#e4c53e" data-fill-palette-color="accent"></path></svg></g></svg></g><g id="text-0"><path d="M14.225 82.187v0c-1.485-0.55-2.518-0.041-3.099 1.527v0c-0.503 1.358-0.517 3.356-0.042 5.993 0.475 2.637 1.595 5.585 3.363 8.845 1.776 3.256 3.931 5.865 6.466 7.828v0c1.004 0.797 1.992 1.376 2.963 1.735 0.971 0.359 1.919 0.393 2.843 0.1v0c1.64-0.512 2.886-1.88 3.739-4.105v0c0.059-0.159 0.113-0.305 0.162-0.438v0c0.916-2.476 1.274-5.382 1.073-8.718-0.201-3.337-1.203-6.324-3.006-8.961v0c-0.137-0.195-0.128-0.347 0.028-0.456 0.164-0.112 0.288-0.153 0.37-0.122 0.076 0.028 0.132 0.081 0.169 0.159v0c1.957 2.962 3.08 6.127 3.37 9.497 0.296 3.372-0.054 6.404-1.05 9.095v0c-1.041 2.812-2.625 4.644-4.751 5.495v0c-1.384 0.541-2.914 0.502-4.59-0.119v0c-2.818-1.043-5.456-3.228-7.912-6.555v0c-3.34-4.527-5.097-9.169-5.272-13.925v0c-0.045-1.828 0.203-3.472 0.744-4.932v0c0.67-1.809 1.572-2.94 2.706-3.393v0c0.772-0.292 1.542-0.295 2.31-0.011v0c1.466 0.543 2.685 1.871 3.657 3.984 0.965 2.111 1.561 4.273 1.789 6.486 0.221 2.211 0.142 4.033-0.237 5.466v0c-0.15 0.58-0.394 0.792-0.734 0.638v0c-0.467-0.202-0.607-0.632-0.421-1.292v0c0.597-2.197 0.673-4.392 0.229-6.584-0.44-2.184-1.4-4.094-2.88-5.732v0c-0.55-0.716-1.213-1.218-1.987-1.505z" fill="#233565" data-fill-palette-color="primary"></path><path d="M48.334 97.549v0c-0.117 0.191-0.301 0.407-0.552 0.649v0c-1.068 1.045-2.093 1.266-3.074 0.666-0.981-0.601-1.819-1.987-2.514-4.158-0.695-2.171-1.148-6.131-1.359-11.878v0c-3.253-5.11-5.623-8.537-7.111-10.281v0c0.158 0.494 0.54 1.509 1.147 3.047 0.61 1.532 1.108 2.864 1.493 3.997 0.382 1.139 0.645 2.383 0.787 3.731 0.137 1.345-0.032 2.405-0.505 3.179-0.474 0.774-1.015 1.263-1.626 1.469-0.604 0.209-1.116 0.222-1.534 0.037-0.415-0.191-0.755-0.367-1.021-0.53v0c-0.895-0.548-1.641-1.338-2.239-2.37v0c-1.036-1.626-1.707-3.382-2.013-5.268v0c-0.16-0.725-0.132-1.263 0.084-1.615 0.216-0.352 0.521-0.605 0.917-0.76v0c0.535-0.109 0.887-0.029 1.055 0.241v0c-0.034 1.249 0.348 2.931 1.148 5.048v0c0.435 1.131 1.207 2.203 2.317 3.215v0c0.153 0.126 0.357 0.266 0.611 0.422 0.254 0.155 0.523 0.177 0.805 0.065 0.285-0.103 0.495-0.264 0.63-0.484v0c0.459-0.75 0.539-1.781 0.238-3.092-0.291-1.313-0.649-2.615-1.073-3.907-0.427-1.285-0.963-2.784-1.605-4.494-0.652-1.709-1.078-2.834-1.278-3.377-0.203-0.537-0.207-0.964-0.013-1.282v0c0.237-0.387 0.59-0.718 1.061-0.994 0.47-0.276 0.744-0.346 0.82-0.212 0.086 0.132 1.083 1.588 2.993 4.368 1.903 2.776 3.261 4.778 4.073 6.005v0c0.042-0.768-0.098-2.206-0.418-4.315-0.326-2.112-0.797-4.019-1.413-5.722v0c-0.14-0.419-0.066-0.592 0.222-0.519v0c0.06 0.005 0.145 0.041 0.255 0.109 0.11 0.067 0.216 0.231 0.318 0.492v0c0.534 1.358 1.047 3.319 1.541 5.883 0.488 2.56 0.703 4.485 0.643 5.775v0c2.973 4.645 4.79 7.654 5.45 9.026v0c1.575 3.456 1.821 6.067 0.74 7.834zM41.796 84.368v0c0.402 4.23 0.848 7.352 1.338 9.366 0.495 2.017 1.196 3.303 2.102 3.858 0.906 0.555 1.552 0.518 1.937-0.111v0c0.297-0.485 0.39-1.194 0.279-2.127-0.106-0.93-0.394-1.936-0.867-3.019-0.463-1.085-0.9-1.959-1.31-2.623-0.411-0.664-1.025-1.612-1.843-2.843-0.82-1.24-1.365-2.074-1.636-2.501z" fill="#233565" data-fill-palette-color="primary"></path><path d="M46.612 70.399v0c-0.263 1.11-0.484 1.772-0.661 1.986-0.182 0.219-0.307 0.3-0.374 0.243-0.062-0.052-0.12-0.126-0.172-0.222-0.052-0.096-0.333-0.589-0.842-1.48-0.514-0.885-1.165-2.008-1.953-3.368-0.792-1.355-1.443-2.504-1.952-3.447v0c0.126 0.959 0.389 2.173 0.788 3.64v0c0.065 0.239-0.014 0.424-0.238 0.555-0.218 0.135-0.397-0.115-0.537-0.751v0c-0.271-1.441-0.77-3.387-1.494-5.839v0c-0.45 0.181-0.755 0.204-0.917 0.07-0.166-0.139-0.274-0.263-0.322-0.374v0c-0.174-0.33-0.065-0.573 0.329-0.73v0c0.15-0.095 0.242-0.164 0.277-0.206v0c-1.732-3.061-2.99-6.137-3.773-9.228v0c-0.46-1.712-0.592-3.204-0.396-4.476 0.191-1.277 0.595-2.287 1.215-3.031v0c0.433-0.52 0.976-0.914 1.629-1.18 0.652-0.276 1.262-0.178 1.829 0.293v0c1.087 0.905 1.885 3.158 2.393 6.759v0c0.235 1.886 0.283 3.824 0.144 5.812-0.14 1.988-0.402 3.632-0.788 4.931v0c1.167 2.407 2.503 4.79 4.008 7.152v0l-1.012-4.434c-0.215-0.144-0.429-0.304-0.643-0.482v0c-0.656-0.545-0.942-1.021-0.859-1.428v0c0.062-0.212 0.275-0.203 0.637 0.028v0l0.571 0.25c-0.568-3.307-0.716-5.478-0.446-6.512v0c0.113-0.496 0.287-0.884 0.521-1.165 0.238-0.286 0.524-0.476 0.856-0.569 0.334-0.083 0.586-0.054 0.758 0.089v0c0.307 0.255 0.372 0.732 0.196 1.431v0c-0.841 3.36-1.174 5.755-1 7.186v0c2.264 1.004 4.129 1.688 5.596 2.053 1.461 0.371 3.293 0.561 5.495 0.571 2.206 0.004 3.68-0.438 4.42-1.328v0c0.619-0.744 0.549-1.322-0.209-1.733v0c-0.662-0.401-1.318-0.643-1.97-0.728-0.656-0.079-0.893-0.228-0.712-0.446v0c0.185-0.18 0.457-0.306 0.816-0.378v0c0.259-0.005 0.653 0.068 1.181 0.216 0.527 0.139 0.921 0.317 1.18 0.534v0c0.591 0.527 0.826 1.22 0.703 2.076-0.123 0.857-0.404 1.549-0.841 2.074v0c-0.853 1.025-2.191 1.607-4.014 1.745-1.833 0.139-3.738-0.063-5.715-0.608-1.987-0.544-3.84-1.311-5.56-2.301v0c0.222 0.845 0.511 1.825 0.868 2.941v0c0.69 2.229 1.02 3.499 0.99 3.809zM39.353 46.265c-0.489-1.402-0.929-2.265-1.318-2.59-0.395-0.329-0.73-0.33-1.003-0.002-0.273 0.328-0.419 0.906-0.439 1.735v0c-0.094 2.282 0.143 4.469 0.71 6.56 0.557 2.092 1.461 4.451 2.71 7.076v0c0.752-2.808 0.867-5.83 0.344-9.065v0c-0.175-1.07-0.51-2.308-1.004-3.714z" fill="#233565" data-fill-palette-color="primary"></path><path d="M54.35 43.389v0c1.118-1.044 2.181-1.026 3.187 0.052v0c0.522 0.559 0.791 1.16 0.807 1.803v0c0.201 1.247-0.014 2.698-0.646 4.352-0.622 1.655-1.311 2.89-2.067 3.707v0c-0.269 0.288-0.501 0.351-0.696 0.191v0c-0.098-0.066-0.12-0.143-0.064-0.232 0.056-0.089 0.103-0.152 0.143-0.189v0c0.433-0.488 0.83-1.288 1.189-2.401v0c0.698-2.04 0.996-3.754 0.896-5.141v0c-0.074-0.625-0.271-1.108-0.589-1.45-0.319-0.341-0.644-0.357-0.976-0.048v0c-0.272 0.254-0.53 0.707-0.772 1.36v0c-0.55 1.365-0.835 3.113-0.856 5.243-0.021 2.14 0.303 3.901 0.974 5.285v0c0.205 0.429 0.458 0.804 0.758 1.125 0.3 0.322 0.72 0.504 1.26 0.546 0.545 0.038 1.097-0.204 1.655-0.726v0c0.624-0.582 1.182-1.417 1.675-2.506v0c1.454-3.134 1.914-6.258 1.379-9.37v0c-0.029-0.279 0.057-0.415 0.258-0.408v0c0.121-0.039 0.212-0.026 0.272 0.038 0.055 0.059 0.09 0.161 0.105 0.306v0c0.342 1.616 0.416 3.273 0.223 4.971v0c-0.377 3.296-1.437 5.757-3.179 7.383v0c-1.494 1.395-2.957 1.926-4.386 1.594v0c-0.556-0.139-1.066-0.458-1.533-0.958-0.462-0.495-0.878-1.208-1.248-2.141v0c-0.584-1.668-0.607-3.919-0.068-6.755 0.538-2.826 1.305-4.703 2.299-5.631z" fill="#233565" data-fill-palette-color="primary"></path><path d="M66.417 22.697v0c-0.083-0.704-0.221-1.194-0.416-1.47v0c-0.343-0.487-0.711-0.591-1.104-0.315v0c-0.326 0.23-0.602 0.702-0.827 1.417v0c-0.842 2.74-1.034 6.276-0.578 10.609v0c0.376 3.479 0.869 6.337 1.479 8.575v0c0.833-2.212 1.373-5.244 1.62-9.097 0.247-3.853 0.189-7.092-0.174-9.719zM65.432 43.275v0c0.278 0.98 0.496 1.613 0.656 1.898 0.169 0.287 0.412 0.654 0.728 1.102 0.32 0.453 0.727 0.783 1.221 0.99v0c0.834 0.348 1.528-0.072 2.082-1.258v0c0.43-0.858 0.831-2.156 1.203-3.894 0.373-1.738 0.56-3.216 0.561-4.434v0c0.003-0.101 0.051-0.185 0.146-0.252v0c0.205-0.144 0.368-0.036 0.49 0.325v0c0.093 0.871 0.012 2.125-0.241 3.761-0.253 1.637-0.56 3.009-0.922 4.117-0.365 1.103-0.929 1.923-1.692 2.462v0c-1.764 1.245-3.251 1.01-4.461-0.704v0c-0.047-0.066-0.096-0.135-0.146-0.207v0c-1.05-1.687-1.954-4.718-2.715-9.094-0.762-4.367-1.105-7.828-1.028-10.384v0l0.116-2.107c0.045-0.488 0.154-1.12 0.327-1.896v0c0.305-1.54 0.949-2.658 1.933-3.353 0.984-0.695 1.863-0.864 2.637-0.506v0c0.264 0.128 0.535 0.389 0.813 0.781 0.277 0.393 0.495 1.071 0.654 2.036v0c0.544 5.83-0.244 12.702-2.362 20.617z" fill="#233565" data-fill-palette-color="primary"></path><path d="M104.225 11.57v0c0.465 1.163-0.27 2.954-2.204 5.374v0c0.599 0.278 1.181 0.702 1.744 1.271 0.563 0.57 0.917 1.037 1.062 1.401v0c0.653 1.634 0.699 3.336 0.138 5.106-0.564 1.763-1.365 3.25-2.405 4.46v0c-2.474 2.818-5.292 4.859-8.453 6.123v0c-1.156 0.462-2.343 0.74-3.56 0.832-1.219 0.086-2.285-0.1-3.197-0.559v0c-1.359-0.645-2.307-1.64-2.844-2.985v0c-0.598-1.496-0.543-3.118 0.165-4.866v0c0.914-2.29 3.208-4.23 6.879-5.822v0c0.832-0.362 1.375-0.608 1.629-0.739v0c-2.045-0.684-3.907-1.788-5.587-3.31v0c-0.79-0.756-1.354-1.555-1.69-2.397-0.337-0.842-0.395-1.719-0.176-2.63 0.213-0.909 1.009-1.854 2.387-2.835v0c0.816-0.567 1.513-0.965 2.091-1.196 0.578-0.231 1.114-0.376 1.609-0.435 0.494-0.059 1.134-0.027 1.919 0.097 0.782 0.132 1.43 0.34 1.943 0.622v0c0.32-0.951 0.685-1.524 1.096-1.717v0c0.313-0.22 0.626-0.276 0.939-0.167 0.317 0.099 0.388 0.351 0.215 0.756v0c-0.049 0.114-0.192 0.368-0.428 0.761v0c-1.017 1.813-1.358 3.141-1.021 3.984v0c0.116 0.289 0.288 0.512 0.518 0.667 0.227 0.15 0.268 0.287 0.12 0.411-0.15 0.118-0.332 0.136-0.546 0.055-0.221-0.079-0.498-0.534-0.829-1.364-0.332-0.83-0.424-1.671-0.277-2.524v0c-0.788-0.385-1.637-0.585-2.547-0.601-0.912-0.022-1.592 0.057-2.038 0.236v0c-1.974 0.789-2.744 2.106-2.312 3.952v0c0.128 0.466 0.329 1.042 0.602 1.727 0.274 0.685 0.845 1.539 1.713 2.563 0.864 1.032 1.687 1.778 2.469 2.239 0.784 0.467 1.182 0.796 1.194 0.988 0.02 0.196-0.17 0.403-0.572 0.622v0c-2.06 1.1-3.891 2.594-5.491 4.48v0c-0.948 1.057-1.565 2.131-1.851 3.221-0.279 1.088-0.253 2.047 0.079 2.877 0.329 0.823 0.89 1.507 1.683 2.05 0.797 0.534 1.732 0.769 2.807 0.704 1.071-0.056 1.936-0.216 2.596-0.48v0c3.212-1.284 5.704-3.227 7.477-5.831v0c1.446-2.109 2.044-4.578 1.795-7.409v0c-0.1-0.871-0.299-1.677-0.595-2.419-0.294-0.735-0.585-1.228-0.874-1.476v0c-0.366 0.452-0.971 1.19-1.817 2.213-0.839 1.02-1.445 1.791-1.82 2.312v0c-0.758 1.003-1.329 2.175-1.711 3.516-0.374 1.345-0.469 2.247-0.285 2.705 0.183 0.459 0.438 0.74 0.763 0.843 0.329 0.094 0.546 0.19 0.651 0.287 0.098 0.099 0.114 0.184 0.047 0.255-0.06 0.068-0.225 0.112-0.494 0.132v0c-0.781 0.035-1.455-0.658-2.023-2.079v0c-0.317-0.792-0.431-1.617-0.344-2.475v0c0.129-1.21 1.51-3.289 4.144-6.238v0l2.174-2.465c1.628-1.817 2.542-3.159 2.743-4.026v0c0.096-0.381 0.102-0.675 0.019-0.882-0.085-0.214-0.194-0.385-0.326-0.515-0.126-0.132-0.138-0.218-0.038-0.258 0.107-0.043 0.245-0.007 0.415 0.107v0c0.248 0.236 0.424 0.487 0.53 0.751z" fill="#233565" data-fill-palette-color="primary"></path><path d="M135.064 21.786v0c0.088-0.001 0.133 0.084 0.134 0.253 0.001 0.169-0.196 0.455-0.593 0.857v0l-0.422 0.643c-0.756 1.17-1.309 1.854-1.659 2.053-0.357 0.199-0.641 0.299-0.851 0.301-0.217 0.002-0.542-0.047-0.976-0.145-0.441-0.091-0.668-0.195-0.682-0.31-0.021-0.115-0.032-0.227-0.033-0.335v0c-0.01-1.394 1.228-4.537 3.716-9.429v0c-0.676 0.093-1.194 0.141-1.552 0.143-0.352 0.003-0.651-0.103-0.896-0.318-0.238-0.208-0.359-0.485-0.362-0.83-0.003-0.338 0.293-0.652 0.887-0.94 0.593-0.289 1.053-0.434 1.377-0.437 0.325-0.002 0.603 0.131 0.836 0.4 0.225 0.269 0.365 0.403 0.419 0.403v0l0.132-0.001c0.588-1.081 1.118-2.076 1.592-2.987 0.474-0.911 0.71-1.501 0.708-1.772-0.002-0.271-0.044-0.477-0.127-0.618v0c0.163-0.82 0.856-1.875 2.078-3.163 1.222-1.282 2.344-1.926 3.367-1.934v0c0.453-0.003 1.006 0.168 1.659 0.515 0.659 0.354 0.947 0.812 0.863 1.375v0c-0.197-0.141-0.381-0.21-0.55-0.209v0c-1.929 0.014-4.557 2.928-7.884 8.739v0c0.933-0.095 1.91-0.231 2.931-0.407v0c3.394-0.452 5.318-0.679 5.772-0.683 0.453-0.003 0.745 0.001 0.873 0.014 0.129 0.013 0.241 0.049 0.336 0.109 0.102 0.053 0.167 0.11 0.194 0.171v0c0.035 0.169-0.288 0.368-0.97 0.596v0c-1.641 0.554-4.967 1.117-9.978 1.689v0c-2.35 4.329-3.522 6.991-3.514 7.986v0c0.004 0.481 0.211 0.655 0.623 0.524 0.405-0.132 0.762-0.398 1.07-0.8v0c0.731-0.967 1.224-1.451 1.482-1.453zM151.542 1.417v0c0.812-0.913 1.587-1.372 2.325-1.378v0c0.338-0.003 0.61 0.083 0.814 0.258 0.198 0.168 0.297 0.336 0.298 0.506 0.001 0.169-0.082 0.339-0.25 0.509-0.168 0.17-0.494 0.437-0.978 0.8-0.478 0.356-0.858 0.677-1.141 0.962v0c-1.35 1.344-2.022 2.496-2.014 3.457v0c0.003 0.426 0.101 0.781 0.292 1.064 0.185 0.283 0.162 0.459-0.067 0.529-0.223 0.076-0.437-0.014-0.642-0.27v0c-0.252-0.167-0.381-0.735-0.388-1.702v0c-0.01-1.272 0.209-2.337 0.656-3.193v0c0.054-0.082 0.144-0.231 0.271-0.449 0.127-0.211 0.231-0.36 0.311-0.449v0c-0.196 0.001-0.728 0.005-1.594 0.012-0.86 0.006-2.573-0.092-5.139-0.297-2.567-0.211-4.503-0.312-5.81-0.302-1.306 0.01-2.314 0.102-3.024 0.277v0c-2.684 0.392-4.993 1.154-6.927 2.285-1.934 1.138-3.081 2.558-3.441 4.26v0c-0.053 0.17-0.078 0.376-0.076 0.62 0.002 0.237 0.082 0.527 0.24 0.871 0.158 0.337 0.353 0.603 0.584 0.798 0.225 0.195 0.572 0.432 1.041 0.713 0.469 0.281 0.782 0.485 0.939 0.612 0.157 0.127 0.188 0.235 0.094 0.324-0.101 0.082-0.202 0.123-0.304 0.125-0.095 0.001-0.2-0.012-0.315-0.039v0c-0.963-0.277-1.783-0.802-2.459-1.575-0.669-0.773-1.006-1.424-1.009-1.952-0.004-0.521 0.064-0.968 0.203-1.342v0c-0.002-0.311 0.01-0.538 0.035-0.681v0c0.411-2.013 1.689-3.583 3.834-4.709v0c2.569-1.346 5.711-2.033 9.426-2.06v0c2.037-0.015 4.547 0.206 7.529 0.664 2.982 0.458 5.21 0.709 6.686 0.752z" fill="#233565" data-fill-palette-color="primary"></path><path d="M154.947 12.5v0c0.699 0.083 1.093 0.357 1.18 0.825v0c0.03 0.263-0.032 0.504-0.188 0.724-0.156 0.227-0.27 0.408-0.34 0.542-0.077 0.134-0.134 0.24-0.17 0.318v0c-0.174 0.266-0.347 0.518-0.519 0.756v0c-1.985 3.017-3.07 4.957-3.253 5.822v0c-0.057 0.252-0.109 0.573-0.155 0.963-0.047 0.397 0.026 0.736 0.217 1.017v0c0.343 0.497 0.905 0.591 1.685 0.281 0.78-0.31 1.891-0.976 3.333-1.999 1.45-1.028 2.652-2.059 3.606-3.091v0c0.124-0.128 0.253-0.147 0.385-0.057 0.133 0.084 0.195 0.163 0.187 0.237-0.008 0.067-0.044 0.141-0.108 0.223v0c-0.513 0.71-1.387 1.591-2.623 2.644v0c-2.031 1.73-3.681 2.748-4.951 3.055v0c-0.728 0.166-1.331 0.221-1.809 0.165v0c-1.129-0.133-1.812-0.756-2.049-1.868v0c-0.037-0.202-0.04-0.444-0.006-0.726v0c0.117-0.988 0.743-2.427 1.88-4.317v0c-0.178 0.293-0.808 0.93-1.892 1.913v0c-0.289 0.252-0.487 0.229-0.595-0.07v0c-0.021-0.057-0.025-0.136-0.013-0.237 0.011-0.094 0.082-0.205 0.213-0.333v0c1.581-1.558 2.835-2.882 3.761-3.972v0c-0.037-0.148 0.015-0.325 0.155-0.534v0c0.744-1.514 1.333-2.286 1.766-2.316v0c0.087 0.01 0.188 0.022 0.302 0.035zM158.937 7.277v0l-0.492 1.312c-0.029 0.249-0.259 0.634-0.689 1.156-0.436 0.521-0.752 0.77-0.947 0.747v0c-1.21-0.143-1.78-0.51-1.71-1.102v0c0.013-0.114 0.68-0.564 2-1.348v0l0.78-0.46c0.497-0.343 0.803-0.508 0.917-0.495 0.108 0.013 0.155 0.076 0.141 0.19z" fill="#233565" data-fill-palette-color="primary"></path><path d="M161.222 25.735v0c-0.453 0.332-0.606 0.644-0.459 0.936 0.152 0.3 0.36 0.481 0.624 0.542 0.257 0.06 0.533 0.083 0.828 0.069v0c1.271-0.085 2.591-0.526 3.96-1.325 1.369-0.799 2.183-1.751 2.443-2.858v0c0.142-0.606-0.382-1.428-1.571-2.464v0c-0.555-0.478-0.869-0.756-0.941-0.836v0c-0.629-0.669-0.981-1.273-1.057-1.811v0c-0.543 0.568-1.386 1.375-2.527 2.421v0c-0.249 0.171-0.441 0.175-0.576 0.011-0.135-0.164-0.108-0.338 0.081-0.523v0c1.496-1.283 2.545-2.407 3.146-3.372v0c0.546-1.471 1.97-2.577 4.27-3.316 2.302-0.747 4.28-0.926 5.934-0.54v0c1.048 0.245 1.742 0.606 2.083 1.083 0.342 0.469 0.47 0.885 0.385 1.247-0.083 0.356-0.282 0.744-0.596 1.164-0.322 0.425-0.847 0.768-1.575 1.028v0c-0.191 0.073-0.323 0.015-0.397-0.176v0c-0.014-0.177 0.158-0.377 0.516-0.599 0.358-0.222 0.634-0.571 0.829-1.046 0.203-0.481 0.054-0.839-0.447-1.075v0c-0.079-0.019-0.161-0.038-0.247-0.058v0c-1.074-0.252-2.513-0.165-4.316 0.262-1.801 0.419-3.306 1.158-4.513 2.217v0c-0.472 0.383-0.765 0.818-0.879 1.306-0.113 0.481 0.119 0.991 0.695 1.529v0c0.237 0.236 0.643 0.609 1.218 1.119 0.581 0.518 0.987 0.892 1.219 1.12 0.238 0.23 0.51 0.568 0.815 1.015 0.304 0.454 0.434 0.835 0.389 1.144v0c-0.055 0.856-0.653 1.675-1.796 2.457v0c-1.635 1.133-3.805 1.688-6.511 1.666v0c-0.612 0.003-1.215-0.066-1.808-0.205-0.593-0.139-0.947-0.455-1.061-0.947v0c-0.059-0.132-0.061-0.317-0.005-0.554 0.054-0.231 0.364-0.558 0.928-0.981v0c0.512-0.318 1.268-0.561 2.267-0.731v0c0.092-0.006 0.158 0.023 0.199 0.088 0.04 0.065 0.037 0.137-0.01 0.217-0.046 0.08-0.214 0.141-0.502 0.185-0.29 0.05-0.635 0.248-1.035 0.591z" fill="#233565" data-fill-palette-color="primary"></path><path d="M176.428 29.637v0c-1.136 0.109-1.834 0.113-2.093 0.014-0.265-0.102-0.382-0.194-0.351-0.276 0.029-0.076 0.081-0.154 0.155-0.234 0.074-0.08 0.451-0.505 1.13-1.274 0.672-0.772 1.525-1.75 2.559-2.934 1.027-1.187 1.905-2.173 2.633-2.96v0c-0.867 0.429-1.931 1.069-3.192 1.92v0c-0.205 0.139-0.406 0.124-0.602-0.046-0.199-0.163-0.019-0.413 0.538-0.751v0c1.277-0.722 2.959-1.82 5.046-3.297v0c-0.316-0.367-0.436-0.649-0.362-0.845 0.077-0.202 0.161-0.344 0.25-0.426v0c0.256-0.272 0.522-0.246 0.797 0.077v0c0.139 0.111 0.233 0.176 0.284 0.196v0c2.34-2.626 4.846-4.809 7.519-6.547v0c1.472-0.987 2.842-1.593 4.11-1.818 1.27-0.231 2.357-0.174 3.261 0.173v0c0.632 0.242 1.18 0.629 1.642 1.162 0.472 0.529 0.576 1.137 0.312 1.826v0c-0.506 1.321-2.382 2.802-5.627 4.444v0c-1.71 0.831-3.528 1.501-5.455 2.01-1.927 0.509-3.568 0.79-4.922 0.843v0c-1.902 1.881-3.728 3.914-5.478 6.1v0l3.872-2.388c0.067-0.25 0.15-0.504 0.249-0.763v0c0.305-0.796 0.663-1.221 1.074-1.274v0c0.221-0.01 0.281 0.194 0.179 0.612v0l-0.053 0.621c2.948-1.603 4.955-2.444 6.021-2.521v0c0.506-0.053 0.929-0.014 1.271 0.117 0.348 0.133 0.619 0.342 0.814 0.627 0.187 0.289 0.24 0.538 0.16 0.746v0c-0.143 0.373-0.573 0.589-1.291 0.647v0c-3.451 0.287-5.826 0.744-7.124 1.371v0c-0.22 2.467-0.267 4.453-0.141 5.958 0.12 1.503 0.531 3.298 1.232 5.386 0.707 2.09 1.601 3.342 2.682 3.756v0c0.904 0.346 1.428 0.094 1.572-0.757v0c0.166-0.755 0.184-1.455 0.054-2.099-0.137-0.647-0.072-0.919 0.194-0.818v0c0.231 0.117 0.437 0.334 0.62 0.651v0c0.088 0.244 0.146 0.64 0.176 1.187 0.038 0.544-0.003 0.974-0.124 1.29v0c-0.309 0.73-0.888 1.175-1.74 1.334-0.851 0.16-1.596 0.117-2.234-0.127v0c-1.245-0.477-2.227-1.556-2.946-3.237-0.723-1.69-1.145-3.559-1.267-5.606-0.126-2.056 0.003-4.058 0.387-6.006v0c-0.728 0.482-1.563 1.072-2.504 1.77v0c-1.888 1.372-2.983 2.094-3.287 2.166zM196.934 14.986c1.169-0.915 1.845-1.609 2.026-2.084 0.184-0.48 0.077-0.797-0.321-0.949-0.398-0.152-0.993-0.105-1.784 0.143v0c-2.19 0.647-4.184 1.576-5.981 2.787-1.801 1.202-3.743 2.818-5.824 4.847v0c2.901-0.194 5.798-1.059 8.691-2.597v0c0.957-0.511 2.021-1.226 3.193-2.147z" fill="#233565" data-fill-palette-color="primary"></path><path d="M204.491 28.253v0c1.349 0.722 1.675 1.733 0.978 3.034v0c-0.361 0.674-0.843 1.123-1.445 1.345v0c-1.116 0.593-2.558 0.857-4.329 0.792-1.767-0.055-3.159-0.309-4.175-0.762v0c-0.359-0.161-0.494-0.361-0.406-0.597v0c0.03-0.114 0.097-0.159 0.199-0.135 0.102 0.024 0.177 0.049 0.225 0.074v0c0.602 0.253 1.487 0.37 2.657 0.351v0c2.156 0.003 3.874-0.267 5.155-0.809v0c0.568-0.272 0.962-0.614 1.182-1.026 0.22-0.412 0.131-0.725-0.269-0.938v0c-0.328-0.176-0.84-0.273-1.536-0.293v0c-1.469-0.08-3.216 0.213-5.239 0.88-2.032 0.67-3.595 1.545-4.688 2.626v0c-0.339 0.333-0.613 0.693-0.821 1.081-0.208 0.388-0.245 0.844-0.111 1.369 0.14 0.528 0.547 0.972 1.221 1.333v0c0.752 0.403 1.723 0.661 2.913 0.776v0c3.436 0.366 6.54-0.206 9.314-1.716v0c0.255-0.117 0.411-0.079 0.469 0.114v0c0.076 0.102 0.093 0.192 0.052 0.269-0.038 0.072-0.123 0.137-0.256 0.197v0c-1.42 0.845-2.964 1.449-4.633 1.815v0c-3.242 0.706-5.913 0.496-8.014-0.628v0c-1.802-0.965-2.777-2.178-2.923-3.639v0c-0.048-0.571 0.09-1.157 0.413-1.76 0.319-0.597 0.861-1.221 1.623-1.871v0c1.39-1.091 3.514-1.838 6.372-2.243 2.849-0.402 4.873-0.282 6.072 0.361z" fill="#233565" data-fill-palette-color="primary"></path><path d="M217.476 40.524v0l0.669-0.57c0.331-0.462 0.323-0.818-0.024-1.066v0c-0.947-0.677-2.765-0.863-5.455-0.558-2.696 0.301-4.797 1.045-6.304 2.232v0c-0.399 0.314-0.709 0.625-0.929 0.933-0.225 0.314-0.341 0.622-0.349 0.923v0c-0.024 0.615 0.253 1.13 0.831 1.544 0.578 0.414 1.259 0.776 2.043 1.087v0c1.771 0.643 3.422 0.929 4.953 0.86 1.535-0.075 3.339-0.415 5.412-1.021v0c0.176-0.049 0.31-0.003 0.401 0.137 0.095 0.135 0.113 0.243 0.054 0.326-0.055 0.077-0.178 0.173-0.367 0.286v0c-2.178 0.706-4.205 1.09-6.082 1.154-1.875 0.073-3.706-0.322-5.494-1.185v0c-0.514-0.259-0.966-0.529-1.357-0.808v0c-1.134-0.811-1.794-1.704-1.979-2.677-0.195-0.972-0.052-1.794 0.428-2.465 0.477-0.666 1.154-1.276 2.033-1.829v0c1.519-0.902 3.722-1.369 6.608-1.402 2.877-0.031 4.868 0.35 5.975 1.142v0c0.275 0.197 0.514 0.422 0.715 0.674v0c0.484 0.696 0.545 1.297 0.183 1.804v0c-0.248 0.347-0.654 0.647-1.219 0.901-0.568 0.259-0.873 0.278-0.914 0.057-0.036-0.217 0.02-0.377 0.168-0.479z" fill="#233565" data-fill-palette-color="primary"></path><path d="M231.139 48.514v0c1.119 1.043 1.175 2.104 0.169 3.183v0c-0.522 0.559-1.102 0.869-1.742 0.93v0c-1.23 0.287-2.693 0.173-4.386-0.342-1.694-0.506-2.974-1.107-3.842-1.805v0c-0.306-0.248-0.385-0.475-0.239-0.681v0c0.059-0.103 0.134-0.129 0.227-0.08 0.093 0.049 0.159 0.093 0.198 0.13v0c0.517 0.399 1.343 0.738 2.478 1.019v0c2.083 0.554 3.814 0.733 5.191 0.537v0c0.618-0.117 1.087-0.347 1.406-0.689 0.318-0.342 0.312-0.667-0.02-0.976v0c-0.272-0.254-0.742-0.479-1.41-0.676v0c-1.4-0.454-3.163-0.617-5.29-0.49-2.136 0.127-3.871 0.574-5.204 1.339v0c-0.413 0.235-0.77 0.513-1.07 0.834-0.3 0.322-0.453 0.753-0.458 1.295 0 0.546 0.28 1.08 0.839 1.601v0c0.624 0.582 1.496 1.08 2.617 1.496v0c3.228 1.233 6.375 1.475 9.443 0.726v0c0.276-0.048 0.418 0.028 0.425 0.229v0c0.047 0.118 0.041 0.209-0.019 0.274-0.055 0.059-0.154 0.101-0.298 0.125v0c-1.588 0.453-3.236 0.642-4.944 0.568v0c-3.314-0.147-5.843-1.033-7.585-2.658v0c-1.495-1.394-2.127-2.816-1.895-4.265v0c0.1-0.564 0.383-1.096 0.849-1.596 0.462-0.495 1.145-0.96 2.049-1.393v0c1.623-0.699 3.868-0.878 6.734-0.538 2.857 0.341 4.782 0.975 5.777 1.903z" fill="#233565" data-fill-palette-color="primary"></path><path d="M243.183 63.05v0c0.404 0.509 0.335 0.978-0.206 1.407-0.546 0.433-1.499 0.774-2.857 1.022-1.358 0.248-2.436 0.485-3.233 0.71v0c-1.356 0.393-2.339 0.831-2.949 1.315-0.61 0.484-0.946 0.893-1.009 1.227v0c-0.09 0.616 0.255 1.085 1.037 1.406 0.782 0.322 2.044 0.634 3.787 0.937 1.738 0.307 3.298 0.417 4.681 0.331v0c0.183 0.002 0.293 0.087 0.332 0.255 0.044 0.164 0.036 0.269-0.022 0.315-0.053 0.042-0.133 0.067-0.24 0.074v0c-0.864 0.141-2.106 0.149-3.724 0.025-1.619-0.124-3.027-0.364-4.224-0.719-1.202-0.351-2.111-0.914-2.725-1.688v0c-0.58-0.775-0.83-1.445-0.751-2.009 0.075-0.569 0.357-1.048 0.845-1.435 0.488-0.387 0.996-0.716 1.524-0.987 0.523-0.277 1.184-0.528 1.98-0.754v0c1.27-0.359 2.288-0.6 3.054-0.724 0.775-0.122 1.245-0.249 1.41-0.38 0.17-0.135 0.183-0.292 0.04-0.472v0c-0.282-0.355-1.253-0.687-2.913-0.994v0c-1.188-0.181-3.208-0.233-6.06-0.158-2.861 0.074-4.416 0.068-4.666-0.019v0c-1.033-0.485-1.629-0.829-1.789-1.031-0.156-0.196-0.199-0.322-0.13-0.376 0.064-0.05 0.173-0.103 0.329-0.157 0.156-0.054 0.935-0.318 2.339-0.792 1.394-0.475 2.922-0.999 4.583-1.574 1.661-0.574 2.664-0.916 3.009-1.025 0.341-0.115 0.622-0.229 0.842-0.344 0.216-0.12 0.407-0.211 0.574-0.273 0.17-0.057 0.386-0.09 0.647-0.099 0.266-0.013 0.485 0.078 0.655 0.271 0.166 0.188 0.344 0.461 0.534 0.821 0.195 0.355 0.181 0.621-0.041 0.797v0c-0.154 0.122-0.592 0.266-1.315 0.434-0.713 0.168-3.059 0.892-7.037 2.171v0c1.607 0.022 3.535 0.139 5.784 0.351 2.245 0.206 4.034 0.468 5.366 0.786v0c1.268 0.368 2.114 0.82 2.539 1.355z" fill="#233565" data-fill-palette-color="primary"></path><path d="M251.529 75.565l0.322 0.458c1.291 1.767 2.056 2.851 2.297 3.251 0.241 0.4 0.3 0.637 0.178 0.71v0c-0.145 0.087-0.467-0.107-0.965-0.581-0.498-0.474-1.535-1.747-3.11-3.816v0c-0.294 0.011-0.636 0.019-1.027 0.025v0c-0.806-0.013-1.276 0.005-1.412 0.054v0c-3.601 0.276-5.799 0.606-6.595 0.99v0c-0.234 0.109-0.52 0.265-0.857 0.467-0.342 0.206-0.566 0.47-0.671 0.794v0c-0.183 0.576 0.087 1.077 0.809 1.504 0.722 0.427 1.929 0.898 3.62 1.414 1.701 0.518 3.251 0.838 4.652 0.96v0c0.178 0.02 0.272 0.125 0.284 0.315v0c0.051 0.467-1.287 0.414-4.016-0.158v0c-2.611-0.548-4.426-1.23-5.446-2.046v0c-0.577-0.474-0.99-0.918-1.237-1.33v0c-0.586-0.975-0.511-1.896 0.223-2.763v0c0.137-0.153 0.327-0.303 0.571-0.45v0c0.853-0.512 2.374-0.898 4.565-1.155v0c-0.34 0.039-1.23-0.07-2.671-0.326v0c-0.376-0.074-0.479-0.245-0.309-0.513v0c0.032-0.051 0.092-0.103 0.179-0.155 0.081-0.049 0.212-0.06 0.394-0.035v0c2.2 0.297 4.014 0.478 5.443 0.543v0c0.023-0.014 0.694-0.054 2.013-0.12v0c-0.195-0.207-0.369-0.437-0.523-0.692-0.153-0.255-0.188-0.491-0.105-0.707 0.089-0.219 0.271-0.344 0.545-0.375v0c0.49-0.065 1.095 0.443 1.817 1.526v0c0.064 0.001 0.117 0.036 0.159 0.106v0l4.492-0.211c0.247-0.022 0.512-0.035 0.794-0.039 0.276 0 0.489-0.001 0.637-0.004 0.145-0.008 0.301-0.011 0.468-0.009 0.164-0.004 0.284 0.007 0.362 0.031 0.08 0.015 0.157 0.032 0.232 0.051v0c0.204 0.011 0.449 0.255 0.735 0.731 0.286 0.476 0.346 0.878 0.18 1.206v0c-0.057 0.129-0.198 0.261-0.424 0.397-0.232 0.139-0.538 0.209-0.918 0.208-0.385 0.003-0.698-0.058-0.938-0.182-0.231-0.122-0.445-0.175-0.641-0.16v0z" fill="#233565" data-fill-palette-color="primary"></path><path d="M259.318 90.018v0c0.639 1.39 0.288 2.393-1.052 3.009v0c-0.695 0.32-1.35 0.386-1.965 0.2v0c-1.247-0.201-2.557-0.862-3.929-1.982-1.375-1.111-2.331-2.154-2.869-3.128v0c-0.189-0.345-0.176-0.586 0.037-0.721v0c0.093-0.073 0.173-0.069 0.241 0.012 0.067 0.081 0.112 0.146 0.134 0.196v0c0.327 0.565 0.962 1.193 1.906 1.883v0c1.717 1.304 3.25 2.126 4.599 2.467v0c0.617 0.126 1.137 0.092 1.561-0.103 0.424-0.195 0.542-0.499 0.353-0.911v0c-0.156-0.338-0.505-0.725-1.048-1.161v0c-1.123-0.951-2.692-1.772-4.708-2.461-2.025-0.693-3.799-0.938-5.323-0.737v0c-0.471 0.06-0.907 0.182-1.307 0.366-0.4 0.184-0.705 0.525-0.915 1.025-0.207 0.505-0.151 1.105 0.169 1.799v0c0.356 0.775 0.974 1.567 1.853 2.378v0c2.518 2.366 5.339 3.784 8.461 4.255v0c0.274 0.06 0.376 0.185 0.306 0.373v0c-0.001 0.127-0.042 0.209-0.122 0.246-0.074 0.034-0.181 0.035-0.322 0.003v0c-1.642-0.184-3.238-0.634-4.79-1.35v0c-3.01-1.394-5.013-3.174-6.009-5.339v0c-0.854-1.857-0.899-3.412-0.134-4.665v0c0.306-0.484 0.77-0.868 1.391-1.154 0.615-0.283 1.423-0.453 2.425-0.512v0c1.767-0.03 3.911 0.656 6.434 2.059 2.514 1.399 4.055 2.717 4.623 3.953z" fill="#233565" data-fill-palette-color="primary"></path><path d="M250.819 105.905v0c-0.43-1.376 0.189-2.324 1.856-2.845 1.66-0.518 4.08 0.031 7.258 1.649v0c0.254 0.133 0.445 0.223 0.573 0.267v0l0.498 0.164c0.634 0.213 1.015 0.286 1.142 0.218v0l0.329-0.241c0.291-0.204 0.387-0.724 0.29-1.558-0.095-0.828-0.22-1.488-0.373-1.979v0c-4.198-1.363-6.597-2.156-7.199-2.379-0.61-0.228-0.894-0.423-0.853-0.585 0.035-0.16 0.108-0.257 0.218-0.291 0.11-0.034 0.297-0.004 0.56 0.091v0c2.248 0.908 4.55 1.572 6.908 1.991v0c-0.049-0.339-0.009-0.618 0.122-0.836 0.122-0.222 0.414-0.331 0.876-0.326 0.462 0.005 1.15 0.244 2.064 0.717 0.92 0.471 1.583 0.924 1.987 1.357 0.407 0.44 0.657 0.72 0.752 0.84 0.101 0.118 0.176 0.257 0.226 0.419v0c0.101 0.323-0.42 0.369-1.563 0.137v0l-3.016-0.803c0.297 1.247 0.581 2.304 0.851 3.17v0l0.49 1.399c0.145 0.465 0.19 0.824 0.134 1.076-0.054 0.258-0.247 0.378-0.579 0.361v0c-0.577-0.032-1.417-0.292-2.518-0.777v0c-2.399-1.031-4.795-1.619-7.188-1.766v0c-0.569-0.028-1.044 0.017-1.426 0.137v0c-0.782 0.244-1.084 0.65-0.906 1.219v0c0.059 0.187 0.319 0.5 0.782 0.936 0.463 0.437 1.45 1.1 2.961 1.99 1.507 0.898 2.921 1.556 4.243 1.973v0c0.17 0.067 0.243 0.187 0.218 0.357-0.018 0.169-0.063 0.264-0.134 0.286-0.065 0.02-0.147 0.018-0.247-0.008v0c-0.857-0.179-2.02-0.621-3.488-1.325-1.466-0.698-2.704-1.439-3.715-2.223v0c-1.067-0.738-1.778-1.675-2.133-2.812z" fill="#233565" data-fill-palette-color="primary"></path><path d="M32.468 191.293v0c1.319-0.472 1.729-1.405 1.23-2.802v0c-0.431-1.205-1.557-2.567-3.379-4.085-1.825-1.526-4.264-2.889-7.317-4.091-3.06-1.199-6.008-1.745-8.844-1.636v0c-1.138 0.033-2.138 0.203-2.998 0.511-0.86 0.308-1.524 0.825-1.99 1.552v0c-0.822 1.279-0.888 2.916-0.196 4.911v0c0.05 0.14 0.097 0.271 0.14 0.392v0c0.786 2.199 2.196 4.372 4.229 6.521 2.035 2.155 4.414 3.612 7.137 4.371v0c0.209 0.062 0.288 0.174 0.238 0.335-0.044 0.159-0.104 0.253-0.18 0.28-0.07 0.025-0.135 0.023-0.196-0.005v0c-3.014-0.892-5.581-2.4-7.699-4.526-2.118-2.125-3.603-4.38-4.455-6.763v0c-0.898-2.511-0.867-4.657 0.092-6.438v0c0.628-1.159 1.688-2.005 3.179-2.538v0c2.505-0.895 5.539-0.913 9.103-0.052v0c4.84 1.174 8.674 3.322 11.501 6.444v0c1.075 1.219 1.845 2.478 2.31 3.778v0c0.574 1.606 0.605 2.889 0.092 3.849v0c-0.357 0.631-0.879 1.069-1.567 1.315v0c-1.3 0.465-2.88 0.257-4.741-0.623-1.86-0.88-3.497-2.01-4.909-3.388-1.41-1.372-2.396-2.651-2.957-3.838v0c-0.222-0.481-0.176-0.764 0.139-0.848v0c0.434-0.134 0.776 0.079 1.025 0.636v0c0.84 1.827 2.035 3.359 3.584 4.595 1.547 1.23 3.288 1.98 5.225 2.251v0c0.781 0.174 1.516 0.138 2.204-0.108z" fill="#233565" data-fill-palette-color="primary"></path><path d="M4.818 210.608v0c-0.1-0.169-0.195-0.404-0.285-0.704v0c-0.37-1.267-0.117-2.158 0.757-2.674 0.875-0.515 2.309-0.595 4.303-0.237 1.985 0.355 5.267 1.645 9.848 3.871v0c5.351-0.412 9.017-0.836 10.999-1.273v0c-0.458-0.084-1.412-0.209-2.862-0.376-1.452-0.158-2.702-0.325-3.748-0.501-1.049-0.167-2.128-0.478-3.237-0.933-1.114-0.451-1.874-1.021-2.28-1.709-0.409-0.694-0.568-1.323-0.476-1.887 0.092-0.565 0.297-0.969 0.618-1.213 0.317-0.249 0.594-0.445 0.833-0.585v0c0.805-0.474 1.734-0.731 2.787-0.77v0c1.703-0.124 3.354 0.086 4.954 0.627v0c0.631 0.178 1.04 0.424 1.225 0.739 0.186 0.315 0.258 0.657 0.217 1.028v0c-0.135 0.464-0.343 0.705-0.624 0.721v0c-0.963-0.54-2.439-0.939-4.429-1.196v0c-1.065-0.127-2.223 0.034-3.476 0.481v0c-0.165 0.066-0.362 0.166-0.589 0.3-0.227 0.134-0.356 0.336-0.386 0.604-0.033 0.263 0.008 0.494 0.125 0.693v0c0.395 0.671 1.168 1.162 2.318 1.474 1.144 0.315 2.308 0.577 3.49 0.783 1.188 0.203 2.584 0.406 4.188 0.607 1.607 0.208 2.665 0.343 3.173 0.405 0.506 0.071 0.841 0.247 1.006 0.527v0c0.203 0.344 0.316 0.756 0.34 1.237 0.018 0.484-0.041 0.731-0.176 0.74-0.142 0.013-1.694 0.185-4.657 0.517-2.969 0.335-5.101 0.563-6.397 0.683v0c0.586 0.354 1.771 0.846 3.556 1.475 1.782 0.623 3.466 1.049 5.053 1.276v0c0.39 0.061 0.497 0.19 0.323 0.388v0c-0.036 0.045-0.101 0.095-0.195 0.149-0.099 0.058-0.274 0.075-0.524 0.05v0c-1.282-0.148-3.026-0.562-5.233-1.241-2.207-0.679-3.803-1.314-4.787-1.904v0c-4.873 0.397-7.982 0.567-9.327 0.512v0c-3.352-0.209-5.494-1.103-6.425-2.684zM17.846 210.979v0c-3.477-1.447-6.106-2.396-7.888-2.846-1.782-0.451-3.078-0.437-3.888 0.04-0.811 0.478-1.051 0.996-0.721 1.557v0c0.254 0.432 0.77 0.799 1.546 1.103 0.773 0.299 1.68 0.491 2.721 0.577 1.041 0.086 1.907 0.11 2.599 0.071 0.689-0.044 1.687-0.13 2.995-0.256 1.305-0.132 2.183-0.214 2.636-0.246z" fill="#233565" data-fill-palette-color="primary"></path><path d="M29.899 224.396v0c-0.917-0.427-1.453-0.738-1.61-0.932-0.157-0.195-0.206-0.316-0.149-0.363 0.058-0.047 0.134-0.082 0.228-0.105 0.09-0.029 0.567-0.186 1.431-0.473 0.86-0.292 1.949-0.66 3.268-1.105 1.315-0.45 2.425-0.813 3.332-1.09v0c-0.851-0.054-1.95-0.038-3.298 0.047v0c-0.218 0.01-0.363-0.09-0.437-0.3-0.078-0.215 0.17-0.328 0.744-0.338v0c1.298 0.016 3.075-0.076 5.33-0.274v0c-0.079-0.423-0.045-0.693 0.103-0.813 0.148-0.119 0.278-0.189 0.391-0.21v0c0.308-0.092 0.498 0.047 0.569 0.416v0c0.056 0.146 0.099 0.237 0.129 0.274v0c2.959-0.964 5.85-1.518 8.672-1.66v0c1.565-0.095 2.883 0.053 3.952 0.443 1.074 0.396 1.878 0.926 2.413 1.591v0c0.378 0.469 0.627 1.012 0.748 1.626 0.126 0.611-0.066 1.122-0.578 1.533v0c-0.976 0.785-3.071 1.085-6.286 0.9v0c-1.68-0.134-3.371-0.438-5.072-0.911-1.702-0.464-3.083-0.977-4.144-1.54v0c-2.298 0.589-4.602 1.33-6.913 2.226v0l4.033-0.104c0.157-0.161 0.333-0.32 0.528-0.478v0c0.585-0.471 1.049-0.635 1.39-0.492v0c0.168 0.09 0.124 0.273-0.132 0.549v0l-0.316 0.45c2.971 0.086 4.879 0.336 5.724 0.751v0c0.413 0.189 0.721 0.41 0.925 0.663 0.204 0.253 0.315 0.532 0.335 0.838 0.02 0.305-0.049 0.522-0.207 0.649v0c-0.274 0.221-0.7 0.194-1.277-0.08v0c-2.765-1.32-4.784-2.033-6.058-2.138v0c-1.268 1.793-2.189 3.294-2.763 4.503-0.578 1.203-1.065 2.763-1.461 4.679-0.395 1.907-0.269 3.261 0.376 4.063v0c0.535 0.665 1.048 0.703 1.54 0.117v0c0.464-0.503 0.788-1.029 0.972-1.577 0.19-0.552 0.363-0.731 0.521-0.536v0c0.119 0.191 0.178 0.448 0.176 0.77v0c-0.044 0.226-0.173 0.556-0.389 0.991-0.21 0.43-0.434 0.74-0.671 0.931v0c-0.565 0.42-1.207 0.502-1.926 0.246-0.728-0.257-1.281-0.62-1.658-1.09v0c-0.738-0.918-1.005-2.184-0.802-3.799 0.199-1.61 0.709-3.228 1.53-4.852 0.817-1.63 1.807-3.104 2.971-4.423v0c-0.775 0.041-1.676 0.119-2.704 0.234v0c-2.059 0.205-3.219 0.27-3.48 0.193zM52.119 222.329c1.305-0.181 2.134-0.414 2.487-0.698 0.348-0.28 0.405-0.565 0.172-0.855-0.238-0.295-0.711-0.527-1.419-0.696v0c-1.97-0.483-3.912-0.662-5.827-0.538-1.915 0.124-4.122 0.497-6.62 1.117v0c2.307 1.141 4.908 1.772 7.803 1.893v0c0.964 0.032 2.099-0.042 3.404-0.223z" fill="#233565" data-fill-palette-color="primary"></path><path d="M55.092 235.54v0c0.981 0.942 1.019 1.885 0.115 2.827v0c-0.474 0.493-0.995 0.762-1.564 0.807v0c-1.096 0.233-2.389 0.113-3.877-0.36-1.494-0.477-2.62-1.029-3.38-1.655v0c-0.273-0.224-0.339-0.429-0.199-0.614v0c0.051-0.082 0.118-0.103 0.2-0.061 0.082 0.041 0.14 0.079 0.174 0.111v0c0.448 0.364 1.175 0.678 2.181 0.94v0c1.839 0.518 3.37 0.703 4.592 0.554v0c0.548-0.102 0.966-0.302 1.252-0.6 0.286-0.298 0.283-0.587-0.011-0.869v0c-0.234-0.225-0.645-0.427-1.233-0.607v0c-1.234-0.425-2.796-0.597-4.685-0.515-1.894 0.086-3.435 0.459-4.623 1.12v0c-0.369 0.208-0.687 0.452-0.954 0.73-0.272 0.283-0.413 0.664-0.423 1.143-0.009 0.479 0.23 0.953 0.718 1.421v0c0.542 0.52 1.307 0.974 2.297 1.361v0c2.842 1.135 5.627 1.392 8.352 0.773v0c0.248-0.043 0.371 0.024 0.37 0.2v0c0.04 0.104 0.035 0.184-0.016 0.238-0.052 0.054-0.139 0.091-0.264 0.113v0c-1.414 0.388-2.876 0.532-4.385 0.433v0c-2.933-0.171-5.161-0.987-6.685-2.45v0c-1.303-1.252-1.843-2.517-1.62-3.795v0c0.095-0.5 0.351-0.967 0.769-1.401 0.417-0.434 1.031-0.839 1.842-1.215v0c1.443-0.594 3.43-0.723 5.959-0.386 2.53 0.337 4.229 0.922 5.098 1.757z" fill="#233565" data-fill-palette-color="primary"></path><path d="M76.507 241.748v0c0.567-0.274 0.938-0.532 1.113-0.773v0c0.31-0.427 0.293-0.766-0.052-1.017v0c-0.285-0.207-0.758-0.304-1.42-0.29v0c-2.541 0.079-5.561 0.927-9.06 2.545v0c-2.81 1.314-5.069 2.548-6.776 3.7v0c2.098 0.059 4.797-0.358 8.095-1.25 3.299-0.892 5.999-1.864 8.1-2.915zM58.969 246.795v0c-0.742 0.515-1.209 0.883-1.402 1.103-0.193 0.22-0.432 0.527-0.719 0.921-0.286 0.394-0.447 0.829-0.483 1.305v0c-0.052 0.798 0.5 1.258 1.659 1.379v0c0.843 0.118 2.046 0.084 3.611-0.101 1.555-0.184 2.846-0.447 3.872-0.79v0c0.088-0.028 0.17-0.015 0.247 0.041v0c0.186 0.135 0.143 0.304-0.13 0.508v0c-0.704 0.325-1.777 0.617-3.22 0.875-1.442 0.258-2.681 0.392-3.716 0.401-1.03 0.013-1.879-0.222-2.547-0.707v0c-1.545-1.121-1.77-2.435-0.678-3.941v0c0.044-0.06 0.087-0.121 0.132-0.181v0c1.11-1.369 3.391-2.996 6.842-4.882 3.451-1.886 6.255-3.163 8.412-3.83v0l1.804-0.497c0.419-0.105 0.982-0.195 1.688-0.268v0c1.371-0.184 2.49 0.038 3.355 0.666 0.86 0.624 1.253 1.311 1.177 2.059v0c-0.037 0.258-0.18 0.559-0.43 0.904-0.25 0.345-0.755 0.723-1.514 1.135v0c-4.732 2.119-10.719 3.419-17.96 3.9z" fill="#233565" data-fill-palette-color="primary"></path><path d="M105.979 260.335v0c-0.416 1.022-1.987 1.712-4.713 2.07v0c0.215 0.548 0.326 1.174 0.331 1.878 0.009 0.713-0.052 1.232-0.185 1.558v0c-0.587 1.442-1.602 2.552-3.045 3.331-1.443 0.779-2.868 1.236-4.276 1.372v0c-3.312 0.273-6.363-0.158-9.152-1.295v0c-1.022-0.416-1.948-0.969-2.778-1.658-0.83-0.689-1.397-1.461-1.699-2.314v0c-0.47-1.251-0.463-2.469 0.019-3.654v0c0.541-1.329 1.575-2.333 3.102-3.012v0c1.987-0.894 4.638-0.72 7.954 0.522v0c0.756 0.279 1.255 0.453 1.498 0.522v0c-0.883-1.69-1.391-3.538-1.524-5.543v0c-0.04-0.959 0.091-1.812 0.395-2.558 0.304-0.746 0.803-1.343 1.497-1.791 0.7-0.446 1.791-0.557 3.271-0.334v0c0.866 0.134 1.557 0.305 2.071 0.515 0.508 0.207 0.937 0.444 1.289 0.711 0.351 0.267 0.739 0.681 1.161 1.241 0.42 0.566 0.707 1.099 0.861 1.6v0c0.791-0.416 1.375-0.558 1.752-0.426v0c0.335 0.056 0.572 0.211 0.71 0.464 0.135 0.26 0.022 0.466-0.34 0.619v0c-0.097 0.041-0.343 0.116-0.738 0.225v0c-1.759 0.533-2.791 1.173-3.095 1.918v0c-0.102 0.251-0.129 0.496-0.08 0.735 0.049 0.239-0.011 0.35-0.18 0.333-0.171-0.011-0.298-0.111-0.382-0.299-0.087-0.182 0.019-0.639 0.318-1.372 0.299-0.733 0.756-1.326 1.37-1.777v0c-0.269-0.738-0.687-1.391-1.252-1.957-0.572-0.569-1.056-0.934-1.451-1.095v0c-1.743-0.71-3.041-0.347-3.896 1.087v0c-0.205 0.377-0.431 0.87-0.679 1.478-0.245 0.602-0.409 1.496-0.49 2.683-0.075 1.19-0.009 2.174 0.2 2.954 0.211 0.773 0.264 1.226 0.159 1.359-0.108 0.139-0.359 0.154-0.753 0.044v0c-1.99-0.569-4.076-0.74-6.259-0.511v0c-1.247 0.084-2.299 0.386-3.155 0.908-0.849 0.524-1.422 1.149-1.718 1.876-0.299 0.733-0.358 1.517-0.179 2.35 0.173 0.831 0.622 1.558 1.348 2.182 0.721 0.615 1.373 1.042 1.956 1.279v0c2.84 1.157 5.622 1.45 8.347 0.879v0c2.215-0.45 4.117-1.656 5.705-3.618v0c0.465-0.622 0.831-1.259 1.096-1.91 0.266-0.652 0.386-1.144 0.36-1.476v0c-0.514 0.061-1.354 0.157-2.519 0.29-1.167 0.138-2.026 0.256-2.577 0.353v0c-1.103 0.179-2.19 0.577-3.26 1.193-1.066 0.625-1.682 1.142-1.848 1.55-0.166 0.407-0.175 0.744-0.027 1.008 0.154 0.267 0.233 0.46 0.236 0.579 0 0.124-0.041 0.191-0.126 0.201-0.082 0.003-0.212-0.072-0.391-0.225v0c-0.524-0.455-0.529-1.312-0.016-2.572v0c0.283-0.696 0.716-1.291 1.297-1.785v0c0.824-0.695 2.984-1.171 6.48-1.427v0l2.905-0.242c2.153-0.154 3.562-0.446 4.227-0.877v0c0.286-0.183 0.468-0.368 0.545-0.556 0.077-0.188 0.115-0.363 0.114-0.523 0-0.161 0.044-0.223 0.131-0.188 0.094 0.038 0.16 0.146 0.198 0.322v0c0.014 0.306-0.026 0.574-0.12 0.806z" fill="#233565" data-fill-palette-color="primary"></path><path d="M133.276 276.457v0c0.074 0.002 0.11 0.077 0.107 0.226-0.003 0.149-0.182 0.395-0.535 0.739v0l-0.399 0.559c-0.701 1.013-1.209 1.603-1.524 1.772-0.315 0.169-0.568 0.251-0.757 0.247-0.189-0.004-0.479-0.055-0.87-0.152-0.384-0.097-0.581-0.196-0.592-0.299-0.011-0.102-0.016-0.203-0.014-0.305v0c0.029-1.225 1.21-3.97 3.543-8.234v0c-0.604 0.06-1.062 0.087-1.372 0.079-0.311-0.007-0.573-0.108-0.786-0.302-0.212-0.195-0.315-0.441-0.307-0.739 0.007-0.304 0.277-0.576 0.811-0.814 0.534-0.238 0.946-0.354 1.237-0.346 0.291 0.007 0.532 0.131 0.722 0.372 0.197 0.242 0.32 0.363 0.367 0.364v0l0.122 0.003c0.543-0.942 1.037-1.807 1.482-2.596 0.452-0.795 0.68-1.311 0.686-1.548 0.006-0.237-0.031-0.42-0.109-0.551v0c0.173-0.727 0.817-1.643 1.933-2.748 1.116-1.098 2.127-1.636 3.033-1.615v0c0.399 0.009 0.886 0.176 1.461 0.501 0.568 0.325 0.809 0.736 0.723 1.236v0c-0.173-0.126-0.334-0.191-0.483-0.194v0c-1.712-0.04-4.12 2.467-7.223 7.519v0c0.827-0.055 1.696-0.15 2.607-0.284v0c3.02-0.302 4.729-0.448 5.128-0.44 0.406 0.009 0.663 0.019 0.771 0.029 0.115 0.016 0.215 0.052 0.302 0.108 0.087 0.049 0.143 0.102 0.169 0.156v0c0.024 0.149-0.271 0.319-0.885 0.508v0c-1.466 0.44-4.424 0.848-8.874 1.225v0c-2.2 3.76-3.31 6.081-3.33 6.96v0c-0.01 0.426 0.169 0.59 0.537 0.49 0.368-0.107 0.692-0.333 0.97-0.678v0c0.676-0.837 1.126-1.253 1.349-1.248zM148.421 258.875v0c0.743-0.788 1.442-1.175 2.099-1.16v0c0.298 0.007 0.533 0.09 0.705 0.25 0.172 0.153 0.257 0.304 0.254 0.453-0.003 0.149-0.081 0.299-0.234 0.452-0.152 0.145-0.445 0.369-0.879 0.67-0.434 0.308-0.779 0.584-1.035 0.829v0c-1.239 1.149-1.868 2.15-1.888 3.002v0c-0.009 0.379 0.068 0.696 0.232 0.95 0.157 0.254 0.133 0.409-0.072 0.466-0.205 0.063-0.392-0.023-0.562-0.257v0c-0.22-0.154-0.32-0.657-0.3-1.51v0c0.026-1.13 0.248-2.066 0.664-2.808v0c0.056-0.08 0.14-0.21 0.253-0.39 0.119-0.187 0.217-0.317 0.293-0.389v0c-0.176-0.004-0.646-0.015-1.41-0.033-0.765-0.018-2.281-0.155-4.551-0.411-2.262-0.256-3.972-0.397-5.128-0.424-1.157-0.027-2.049 0.03-2.675 0.171v0c-2.396 0.269-4.465 0.878-6.207 1.826-1.742 0.955-2.793 2.179-3.153 3.674v0c-0.058 0.154-0.089 0.336-0.094 0.546-0.005 0.217 0.06 0.475 0.195 0.777 0.128 0.308 0.292 0.552 0.491 0.732 0.192 0.181 0.495 0.401 0.909 0.661 0.407 0.26 0.677 0.449 0.809 0.567 0.14 0.112 0.165 0.204 0.075 0.276-0.09 0.079-0.179 0.118-0.267 0.116-0.088-0.002-0.182-0.018-0.283-0.047v0c-0.847-0.27-1.556-0.757-2.129-1.462-0.579-0.704-0.864-1.29-0.853-1.756 0.011-0.467 0.084-0.861 0.221-1.183v0c0.006-0.277 0.025-0.477 0.054-0.598v0c0.414-1.771 1.586-3.125 3.517-4.062v0c2.315-1.131 5.116-1.658 8.405-1.581v0c1.807 0.042 4.021 0.31 6.643 0.805 2.629 0.488 4.596 0.771 5.901 0.848z" fill="#233565" data-fill-palette-color="primary"></path><path d="M152.994 268.29v0c0.619-0.065 1.014 0.098 1.184 0.489v0c0.07 0.217 0.063 0.439-0.022 0.666-0.093 0.221-0.159 0.398-0.2 0.531-0.034 0.126-0.061 0.228-0.08 0.305v0c-0.094 0.268-0.194 0.52-0.299 0.756v0c-1.123 2.996-1.681 4.885-1.674 5.666v0c-0.004 0.225 0.013 0.512 0.049 0.863 0.037 0.35 0.167 0.626 0.393 0.827v0c0.392 0.367 0.893 0.342 1.503-0.076 0.61-0.418 1.442-1.212 2.497-2.384 1.048-1.171 1.884-2.293 2.506-3.365v0c0.088-0.138 0.196-0.18 0.324-0.126 0.134 0.047 0.205 0.101 0.211 0.162 0.007 0.067-0.009 0.14-0.049 0.219v0c-0.307 0.713-0.893 1.645-1.759 2.798v0c-1.415 1.89-2.641 3.09-3.677 3.599v0c-0.596 0.287-1.11 0.453-1.54 0.498v0c-0.996 0.104-1.706-0.302-2.128-1.217v0c-0.072-0.169-0.121-0.379-0.147-0.628v0c-0.091-0.875 0.171-2.24 0.787-4.094v0c-0.092 0.289-0.515 0.966-1.268 2.031v0c-0.196 0.272-0.368 0.29-0.515 0.054v0c-0.033-0.051-0.053-0.12-0.063-0.208-0.009-0.088 0.03-0.197 0.119-0.328v0c1.059-1.655 1.884-3.041 2.475-4.158v0c-0.06-0.123-0.051-0.291 0.029-0.504v0c0.353-1.446 0.713-2.228 1.082-2.348v0c0.074-0.008 0.162-0.017 0.262-0.028zM155.433 263.003v0l-0.178 1.233c0.023 0.222-0.101 0.599-0.371 1.131-0.277 0.539-0.503 0.818-0.679 0.837v0c-1.07 0.112-1.633-0.095-1.688-0.62v0c-0.011-0.101 0.476-0.621 1.46-1.561v0l0.596-0.552c0.361-0.392 0.591-0.593 0.692-0.604 0.101-0.011 0.157 0.035 0.168 0.136z" fill="#233565" data-fill-palette-color="primary"></path><path d="M165.243 277.452v0c-0.234 0.441-0.234 0.75 0 0.926 0.235 0.183 0.468 0.249 0.699 0.197 0.231-0.052 0.46-0.145 0.687-0.278v0c0.986-0.554 1.868-1.414 2.647-2.581 0.781-1.16 1.06-2.232 0.84-3.216v0c-0.12-0.535-0.849-0.989-2.189-1.361v0c-0.633-0.163-0.992-0.263-1.076-0.3v0c-0.76-0.294-1.274-0.64-1.544-1.038v0c-0.212 0.665-0.574 1.634-1.086 2.907v0c-0.129 0.23-0.278 0.308-0.446 0.235-0.17-0.08-0.218-0.232-0.144-0.457v0c0.696-1.599 1.101-2.9 1.216-3.903v0c-0.13-1.386 0.576-2.817 2.118-4.293 1.549-1.478 3.059-2.382 4.532-2.712v0c0.931-0.209 1.622-0.19 2.073 0.056 0.457 0.244 0.721 0.525 0.792 0.842 0.073 0.324 0.063 0.714-0.029 1.171-0.092 0.458-0.378 0.931-0.857 1.42v0c-0.13 0.133-0.257 0.137-0.383 0.013v0c-0.085-0.133-0.028-0.358 0.172-0.673 0.2-0.315 0.287-0.702 0.26-1.161-0.027-0.459-0.282-0.686-0.766-0.682v0c-0.073 0.016-0.145 0.033-0.218 0.049v0c-0.958 0.215-2.073 0.839-3.347 1.874-1.273 1.034-2.187 2.203-2.741 3.507v0c-0.23 0.489-0.297 0.948-0.201 1.377 0.096 0.429 0.477 0.75 1.141 0.961v0c0.277 0.091 0.746 0.232 1.406 0.424 0.659 0.185 1.13 0.322 1.414 0.411 0.277 0.091 0.623 0.256 1.037 0.496 0.416 0.247 0.664 0.503 0.744 0.77v0c0.29 0.705 0.127 1.588-0.488 2.648v0c-0.864 1.532-2.377 2.811-4.54 3.837v0c-0.487 0.241-0.995 0.421-1.523 0.539-0.522 0.117-0.926-0.001-1.213-0.352v0c-0.093-0.076-0.164-0.22-0.211-0.432-0.047-0.211 0.072-0.592 0.358-1.141v0c0.287-0.453 0.795-0.941 1.523-1.465v0c0.068-0.036 0.134-0.037 0.197-0.003 0.058 0.042 0.082 0.103 0.072 0.182-0.004 0.077-0.11 0.191-0.319 0.342-0.217 0.146-0.42 0.434-0.607 0.864z" fill="#233565" data-fill-palette-color="primary"></path><path d="M183.269 272.642v0c-0.693 0.736-1.157 1.147-1.392 1.235-0.235 0.088-0.365 0.097-0.391 0.027-0.026-0.07-0.035-0.153-0.029-0.25 0.001-0.094 0.001-0.597 0.001-1.506-0.007-0.908-0.013-2.058-0.02-3.45-0.013-1.39-0.009-2.558 0.014-3.506v0c-0.319 0.791-0.65 1.839-0.993 3.146v0c-0.059 0.21-0.2 0.317-0.423 0.32-0.229 0.006-0.258-0.265-0.087-0.813v0c0.423-1.227 0.895-2.943 1.417-5.146v0c-0.426-0.058-0.672-0.175-0.738-0.352-0.066-0.178-0.092-0.323-0.077-0.438v0c0.01-0.322 0.201-0.458 0.573-0.409v0c0.156-0.008 0.256-0.02 0.301-0.036v0c0.016-3.113 0.4-6.03 1.153-8.754v0c0.402-1.516 0.957-2.72 1.664-3.612 0.713-0.895 1.47-1.492 2.269-1.79v0c0.564-0.211 1.157-0.277 1.779-0.199 0.619 0.072 1.044 0.416 1.273 1.031v0c0.438 1.173 0.064 3.256-1.123 6.25v0c-0.656 1.553-1.476 3.062-2.46 4.528-0.976 1.47-1.897 2.619-2.766 3.449v0c-0.164 2.366-0.185 4.787-0.062 7.263v0l1.17-3.862c-0.103-0.2-0.199-0.417-0.287-0.651v0c-0.263-0.704-0.273-1.195-0.03-1.474v0c0.139-0.131 0.299-0.032 0.48 0.298v0l0.327 0.441c1.016-2.793 1.854-4.525 2.514-5.197v0c0.309-0.332 0.616-0.555 0.92-0.669 0.304-0.114 0.605-0.132 0.901-0.055 0.296 0.077 0.48 0.211 0.551 0.401v0c0.123 0.33-0.036 0.725-0.478 1.187v0c-2.123 2.209-3.435 3.901-3.935 5.078v0c1.303 1.768 2.438 3.114 3.405 4.039 0.96 0.927 2.288 1.88 3.983 2.858 1.686 0.974 3.011 1.282 3.974 0.922v0c0.799-0.298 0.997-0.773 0.595-1.425v0c-0.332-0.599-0.729-1.072-1.191-1.419-0.465-0.354-0.579-0.575-0.345-0.662v0c0.219-0.053 0.481-0.028 0.787 0.074v0c0.201 0.113 0.474 0.34 0.818 0.681 0.342 0.335 0.566 0.645 0.672 0.93v0c0.221 0.669 0.097 1.304-0.372 1.906-0.473 0.61-0.992 1.021-1.556 1.231v0c-1.103 0.412-2.389 0.267-3.858-0.434-1.466-0.695-2.841-1.688-4.125-2.979-1.29-1.288-2.378-2.692-3.263-4.212v0c-0.205 0.748-0.414 1.629-0.629 2.641v0c-0.453 2.019-0.757 3.14-0.911 3.364zM188.296 250.9c0.239-1.296 0.279-2.156 0.121-2.581-0.156-0.418-0.409-0.563-0.758-0.432-0.355 0.133-0.724 0.509-1.107 1.128v0c-1.078 1.718-1.86 3.505-2.344 5.362-0.484 1.857-0.825 4.069-1.023 6.635v0c1.809-1.831 3.226-4.102 4.252-6.811v0c0.334-0.905 0.62-2.005 0.859-3.301z" fill="#233565" data-fill-palette-color="primary"></path><path d="M201.773 252.234v0c1.203-0.635 2.11-0.375 2.719 0.781v0c0.319 0.605 0.41 1.184 0.274 1.738v0c-0.124 1.114-0.645 2.303-1.562 3.568-0.923 1.268-1.801 2.163-2.634 2.687v0c-0.299 0.188-0.514 0.187-0.645-0.004v0c-0.062-0.074-0.061-0.144 0.004-0.209 0.065-0.065 0.119-0.109 0.161-0.131v0c0.487-0.31 1.013-0.902 1.578-1.774v0c1.071-1.583 1.727-2.978 1.971-4.185v0c0.076-0.553 0.017-1.012-0.176-1.377-0.193-0.365-0.469-0.453-0.827-0.263v0c-0.287 0.152-0.609 0.478-0.965 0.979v0c-0.792 1.038-1.446 2.466-1.963 4.285-0.514 1.825-0.645 3.405-0.392 4.741v0c0.082 0.416 0.213 0.795 0.393 1.136 0.183 0.347 0.501 0.601 0.952 0.76 0.452 0.16 0.977 0.082 1.575-0.234v0c0.664-0.351 1.336-0.934 2.015-1.752v0c1.971-2.341 3.092-4.903 3.361-7.685v0c0.037-0.249 0.139-0.345 0.307-0.288v0c0.112-0.005 0.185 0.025 0.22 0.091 0.035 0.066 0.043 0.161 0.024 0.285v0c-0.077 1.464-0.4 2.897-0.969 4.299v0c-1.085 2.73-2.561 4.588-4.429 5.574v0c-1.598 0.843-2.969 0.958-4.111 0.344v0c-0.444-0.248-0.807-0.638-1.089-1.171-0.281-0.533-0.472-1.243-0.573-2.131v0c-0.11-1.557 0.393-3.483 1.509-5.778 1.116-2.295 2.206-3.724 3.272-4.286z" fill="#233565" data-fill-palette-color="primary"></path><path d="M217.875 244.9v0l-0.285-0.718c-0.294-0.414-0.595-0.512-0.904-0.292v0c-0.839 0.595-1.519 2.065-2.039 4.408-0.524 2.338-0.51 4.312 0.041 5.92v0c0.151 0.424 0.325 0.774 0.52 1.05 0.196 0.276 0.419 0.462 0.67 0.558v0c0.505 0.198 1.015 0.114 1.528-0.25 0.513-0.364 1.015-0.827 1.504-1.39v0c1.052-1.302 1.768-2.602 2.149-3.901 0.387-1.303 0.624-2.911 0.712-4.824v0c0.008-0.164 0.086-0.264 0.233-0.302 0.138-0.04 0.232-0.024 0.283 0.048 0.051 0.072 0.097 0.201 0.138 0.387v0c-0.039 2.028-0.301 3.84-0.787 5.438-0.489 1.592-1.355 3.01-2.595 4.255v0c-0.365 0.35-0.722 0.649-1.07 0.896v0c-1.005 0.713-1.941 1.007-2.809 0.883-0.873-0.119-1.519-0.475-1.938-1.065-0.423-0.596-0.737-1.344-0.943-2.243v0c-0.313-1.529-0.066-3.504 0.739-5.926 0.805-2.421 1.699-3.981 2.682-4.678v0c0.248-0.176 0.509-0.311 0.783-0.405v0c0.719-0.203 1.237-0.081 1.554 0.366v0c0.219 0.309 0.353 0.737 0.4 1.284 0.052 0.553-0.017 0.813-0.205 0.781-0.198-0.034-0.318-0.127-0.361-0.28z" fill="#233565" data-fill-palette-color="primary"></path><path d="M228.208 232.42v0c0.997-0.925 1.94-0.909 2.828 0.048v0c0.465 0.501 0.704 1.037 0.716 1.608v0c0.169 1.108-0.025 2.391-0.582 3.85-0.562 1.464-1.178 2.557-1.847 3.279v0c-0.24 0.259-0.448 0.314-0.624 0.163v0c-0.079-0.056-0.096-0.123-0.05-0.203 0.046-0.08 0.086-0.136 0.122-0.167v0c0.389-0.426 0.744-1.134 1.063-2.123v0c0.623-1.806 0.895-3.324 0.817-4.553v0c-0.07-0.553-0.246-0.981-0.527-1.284-0.281-0.303-0.57-0.316-0.868-0.04v0c-0.238 0.221-0.464 0.62-0.677 1.196v0c-0.495 1.208-0.757 2.757-0.784 4.648-0.023 1.896 0.261 3.456 0.853 4.68v0c0.187 0.381 0.412 0.712 0.674 0.995 0.267 0.288 0.639 0.45 1.117 0.487 0.478 0.037 0.964-0.175 1.46-0.635v0c0.551-0.511 1.048-1.249 1.491-2.215v0c1.296-2.773 1.713-5.537 1.251-8.294v0c-0.029-0.25 0.045-0.369 0.222-0.358v0c0.107-0.034 0.185-0.024 0.236 0.031 0.051 0.055 0.083 0.144 0.097 0.269v0c0.306 1.434 0.366 2.902 0.181 4.404v0c-0.339 2.918-1.282 5.096-2.831 6.532v0c-1.325 1.229-2.618 1.696-3.881 1.399v0c-0.493-0.124-0.945-0.406-1.355-0.848-0.41-0.442-0.779-1.078-1.107-1.909v0c-0.51-1.475-0.524-3.466-0.043-5.971 0.482-2.506 1.164-4.169 2.048-4.989z" fill="#233565" data-fill-palette-color="primary"></path><path d="M240.454 218.716v0c0.359-0.45 0.779-0.483 1.26-0.099 0.482 0.384 0.966 1.138 1.454 2.264 0.479 1.126 0.898 2.006 1.259 2.639v0c0.605 1.097 1.178 1.861 1.718 2.292 0.54 0.43 0.96 0.636 1.261 0.616v0c0.55-0.038 0.886-0.427 1.01-1.168 0.119-0.736 0.136-1.887 0.051-3.452-0.089-1.56-0.306-2.928-0.65-4.103v0c-0.037-0.16 0.013-0.271 0.15-0.334 0.136-0.073 0.228-0.091 0.276-0.053 0.053 0.042 0.092 0.108 0.116 0.196v0c0.297 0.713 0.553 1.782 0.766 3.208 0.208 1.421 0.283 2.684 0.225 3.789-0.063 1.11-0.368 2.009-0.917 2.697v0c-0.553 0.65-1.082 0.999-1.587 1.046-0.505 0.047-0.972-0.1-1.401-0.441-0.434-0.346-0.82-0.719-1.159-1.12-0.339-0.4-0.686-0.92-1.043-1.558v0c-0.564-1.03-0.976-1.865-1.236-2.505-0.26-0.64-0.464-1.019-0.612-1.137-0.143-0.114-0.278-0.092-0.404 0.067v0c-0.249 0.312-0.345 1.214-0.288 2.705v0c0.086 1.064 0.443 2.821 1.071 5.269 0.637 2.447 0.943 3.79 0.917 4.029v0c-0.212 0.982-0.39 1.563-0.533 1.744-0.139 0.175-0.238 0.239-0.296 0.192-0.058-0.046-0.125-0.13-0.202-0.252-0.077-0.131-0.458-0.75-1.142-1.858-0.689-1.112-1.447-2.327-2.274-3.645-0.828-1.318-1.325-2.117-1.492-2.396-0.165-0.27-0.32-0.489-0.464-0.656-0.143-0.157-0.258-0.306-0.346-0.445-0.087-0.13-0.16-0.309-0.22-0.539-0.058-0.22-0.023-0.421 0.106-0.604 0.133-0.188 0.333-0.401 0.599-0.638 0.267-0.237 0.498-0.278 0.695-0.122v0c0.138 0.11 0.353 0.459 0.645 1.047 0.287 0.584 1.379 2.467 3.274 5.649v0c-0.297-1.397-0.582-3.087-0.853-5.069-0.266-1.978-0.396-3.575-0.389-4.79v0c0.06-1.172 0.278-1.994 0.654-2.465z" fill="#233565" data-fill-palette-color="primary"></path><path d="M249.173 206.365l0.216-0.438c0.848-1.749 1.378-2.801 1.591-3.155 0.213-0.354 0.374-0.497 0.485-0.431v0c0.128 0.077 0.109 0.409-0.056 0.998-0.165 0.588-0.729 1.927-1.694 4.016v0c0.134 0.223 0.284 0.487 0.448 0.791v0c0.321 0.635 0.529 0.998 0.625 1.087v0c1.716 2.7 2.889 4.283 3.517 4.748v0c0.177 0.138 0.417 0.298 0.719 0.48 0.302 0.182 0.6 0.243 0.896 0.184v0c0.529-0.092 0.811-0.507 0.845-1.245 0.034-0.738-0.1-1.881-0.401-3.429-0.304-1.542-0.697-2.884-1.178-4.027v0c-0.058-0.153-0.014-0.273 0.133-0.359v0c0.346-0.234 0.859 0.837 1.538 3.213v0c0.657 2.268 0.878 3.969 0.661 5.103v0c-0.13 0.649-0.306 1.159-0.53 1.53v0c-0.517 0.858-1.268 1.18-2.253 0.966v0c-0.179-0.044-0.375-0.131-0.59-0.26v0c-0.754-0.454-1.686-1.485-2.795-3.093v0c0.175 0.247 0.461 0.993 0.859 2.235v0c0.099 0.321 0.01 0.468-0.267 0.444v0c-0.06-0.005-0.128-0.03-0.204-0.076-0.075-0.045-0.139-0.143-0.191-0.292v0c-0.684-1.842-1.295-3.335-1.831-4.48v0c-0.023-0.014-0.332-0.524-0.927-1.53v0c-0.089 0.239-0.201 0.472-0.337 0.698-0.136 0.226-0.307 0.352-0.513 0.379-0.202 0.021-0.373-0.07-0.511-0.272v0c-0.257-0.36-0.109-1.045 0.443-2.056v0c-0.032-0.051-0.029-0.109 0.009-0.173v0l-2.027-3.424c-0.119-0.182-0.239-0.385-0.357-0.606-0.113-0.218-0.204-0.383-0.271-0.495-0.067-0.112-0.134-0.231-0.2-0.358-0.072-0.13-0.114-0.231-0.127-0.301-0.022-0.069-0.039-0.138-0.052-0.209v0c-0.079-0.158 0.009-0.449 0.265-0.872 0.251-0.418 0.538-0.632 0.861-0.643v0c0.125-0.011 0.29 0.044 0.492 0.166 0.209 0.126 0.39 0.337 0.542 0.635 0.159 0.301 0.242 0.569 0.252 0.803 0 0.237 0.044 0.425 0.133 0.566v0z" fill="#233565" data-fill-palette-color="primary"></path><path d="M256.093 191.539v0c0.565-1.238 1.441-1.586 2.63-1.043v0c0.622 0.284 1.048 0.686 1.279 1.208v0c0.583 0.957 0.897 2.217 0.944 3.778 0.044 1.567-0.104 2.813-0.443 3.737v0c-0.121 0.331-0.292 0.462-0.514 0.391v0c-0.095-0.021-0.136-0.077-0.124-0.168 0.012-0.091 0.028-0.158 0.048-0.202v0c0.196-0.543 0.251-1.333 0.165-2.368v0c-0.12-1.907-0.452-3.413-0.998-4.517v0c-0.278-0.484-0.605-0.811-0.98-0.983-0.376-0.171-0.648-0.072-0.816 0.297v0c-0.135 0.296-0.19 0.75-0.165 1.365v0c0.007 1.305 0.362 2.836 1.064 4.591 0.708 1.759 1.571 3.089 2.587 3.992v0c0.319 0.279 0.654 0.499 1.005 0.659 0.357 0.163 0.763 0.17 1.218 0.02 0.455-0.15 0.823-0.532 1.104-1.148v0c0.312-0.684 0.486-1.556 0.524-2.617v0c0.13-3.058-0.549-5.77-2.035-8.137v0c-0.123-0.22-0.101-0.358 0.066-0.416v0c0.085-0.073 0.162-0.094 0.23-0.063 0.068 0.031 0.132 0.101 0.194 0.211v0c0.834 1.206 1.454 2.538 1.86 3.996v0c0.81 2.824 0.777 5.197-0.1 7.118v0c-0.75 1.644-1.765 2.573-3.044 2.785v0c-0.503 0.076-1.029-0.012-1.577-0.262-0.548-0.25-1.133-0.695-1.756-1.336v0c-1.038-1.165-1.817-2.997-2.336-5.496-0.52-2.498-0.529-4.296-0.03-5.392z" fill="#233565" data-fill-palette-color="primary"></path><path d="M271.874 182.892v0c-0.375 1.223-1.3 1.609-2.775 1.156-1.482-0.454-2.977-2.066-4.486-4.836v0c-0.117-0.22-0.213-0.38-0.288-0.482v0l-0.281-0.362c-0.356-0.477-0.596-0.724-0.719-0.74v0l-0.365 0.015c-0.313 0.003-0.644 0.334-0.994 0.991-0.344 0.659-0.581 1.202-0.712 1.629v0c2.386 3.096 3.744 4.878 4.074 5.348 0.33 0.469 0.438 0.754 0.323 0.853-0.107 0.095-0.206 0.128-0.297 0.1-0.097-0.03-0.221-0.146-0.371-0.347v0c-1.189-1.78-2.539-3.415-4.05-4.905v0c-0.133 0.271-0.303 0.456-0.51 0.555-0.199 0.095-0.464 0.024-0.795-0.212-0.34-0.232-0.726-0.75-1.159-1.555-0.441-0.801-0.698-1.464-0.771-1.989-0.075-0.518-0.119-0.847-0.133-0.985-0.01-0.13 0.008-0.27 0.054-0.419v0c0.087-0.285 0.488-0.056 1.201 0.687v0l1.802 2.091c0.402-1.059 0.722-1.973 0.957-2.743v0l0.358-1.271c0.125-0.408 0.269-0.693 0.432-0.855 0.168-0.154 0.369-0.142 0.605 0.037v0c0.401 0.307 0.885 0.912 1.45 1.814v0c1.24 1.959 2.698 3.588 4.375 4.887v0c0.401 0.307 0.77 0.512 1.107 0.616v0c0.699 0.214 1.126 0.069 1.28-0.436v0c0.052-0.168 0.016-0.526-0.106-1.073-0.123-0.547-0.513-1.527-1.17-2.939-0.657-1.412-1.363-2.598-2.117-3.558v0c-0.093-0.135-0.087-0.26 0.02-0.377 0.098-0.112 0.176-0.158 0.234-0.14 0.065 0.02 0.126 0.063 0.183 0.13v0c0.536 0.561 1.165 1.465 1.887 2.713 0.717 1.239 1.253 2.402 1.608 3.487v0c0.409 1.067 0.459 2.105 0.149 3.115z" fill="#233565" data-fill-palette-color="primary"></path><path d="M2.455 141.504c0-5.312 4.306-9.618 9.618-9.618 5.312 0 9.618 4.306 9.618 9.618 0 5.312-4.306 9.618-9.618 9.619-5.312 0-9.618-4.306-9.618-9.619z" fill="#233565" data-fill-palette-color="primary"></path><path d="M258.309 141.504c0-5.312 4.306-9.618 9.618-9.618 5.312 0 9.618 4.306 9.618 9.618 0 5.312-4.306 9.618-9.618 9.619-5.312 0-9.618-4.306-9.618-9.619z" fill="#233565" data-fill-palette-color="primary"></path></g><g id="text-1"></g></svg></g></svg></g></svg></g><g></g></svg></g><defs></defs></svg><rect width="280" height="280" fill="none" stroke="none" visibility="hidden"></rect></g></svg></g></svg>